<svg width="80" height="81" viewBox="0 0 80 81" fill="none" xmlns="http://www.w3.org/2000/svg">
<path d="M69.1791 80.7271H41.4021C40.5991 80.7271 39.8291 80.4081 39.2613 79.8403C38.6935 79.2726 38.3746 78.5025 38.3746 77.6995C38.3746 76.8966 38.6935 76.1266 39.2613 75.5588C39.8291 74.991 40.5991 74.6721 41.4021 74.6721H69.1821C70.2317 74.6502 71.2298 74.2132 71.9577 73.4566C72.6856 72.7 73.0838 71.6857 73.0651 70.6361V52.8881C73.0651 52.0851 73.384 51.315 73.9518 50.7473C74.5196 50.1795 75.2896 49.8605 76.0926 49.8605C76.8955 49.8605 77.6656 50.1795 78.2333 50.7473C78.8011 51.315 79.1201 52.0851 79.1201 52.8881V70.6361C79.1371 73.2916 78.1 75.8455 76.2363 77.7373C74.3726 79.6291 71.8346 80.7043 69.1791 80.7271V80.7271ZM3.02706 59.5951C2.22425 59.5951 1.45432 59.2761 0.886652 58.7085C0.318979 58.1408 6.2794e-05 57.3709 6.2794e-05 56.568V10.0911C-0.00847088 7.67263 0.853045 5.33179 2.42732 3.49589C4.0016 1.66 6.18364 0.451512 8.57507 0.0910532C8.80154 0.0579128 9.03116 0.0518649 9.25907 0.0730478C9.48159 0.023229 9.70904 -0.00125802 9.93707 4.9733e-05H66.4461C67.249 4.9733e-05 68.0191 0.319017 68.5868 0.886784C69.1546 1.45455 69.4736 2.2246 69.4736 3.02755C69.4736 3.83049 69.1546 4.60055 68.5868 5.16832C68.0191 5.73608 67.249 6.05505 66.4461 6.05505H9.93707C9.8484 6.05505 9.75973 6.05105 9.67107 6.04305C9.58607 6.06305 9.49906 6.07905 9.41306 6.09105C8.46693 6.24482 7.60748 6.73323 6.99116 7.46738C6.37484 8.20153 6.04265 9.13258 6.05506 10.0911V56.5671C6.05506 57.3701 5.73604 58.1403 5.16818 58.7082C4.60032 59.276 3.83014 59.5951 3.02706 59.5951V59.5951Z" fill="white"/>
<path d="M47.3325 22.0931C47.3325 22.0931 38.8625 14.7931 30.4105 22.6041C30.4105 22.6041 27.4495 11.7971 38.8005 11.7721C49.3265 11.7521 47.3325 22.0931 47.3325 22.0931Z" fill="white"/>
<path d="M42.3542 46.985C42.3542 46.985 48.9962 34.723 49.2782 33.833C49.5952 32.864 51.3062 28.763 49.1782 21.522C47.0502 14.281 44.1972 13.114 44.1972 13.114C48.8692 16.214 45.9852 22.198 43.8622 25.927C43.4622 26.627 43.0492 27.316 42.6292 28C40.7432 31.066 23.6172 61.722 23.6172 61.722L28.6442 69.502L42.3542 46.985Z" fill="white"/>
<path d="M38.791 34.6821C37.166 37.5561 35.215 41.0291 33.251 44.5151L34.773 47.3261L38.41 53.3021L42.121 47.2151C42.121 47.2151 42.957 45.6711 44.048 43.6391C42.177 40.4521 40.339 37.3141 38.791 34.6821Z" fill="white"/>
<path d="M35.2031 46.9851C35.2031 46.9851 28.5591 34.7231 28.2791 33.8331C27.9601 32.8641 26.2511 28.7631 28.3791 21.5221C30.5071 14.2811 33.3641 13.1121 33.3641 13.1121C28.6881 16.2121 31.5761 22.2061 33.6951 25.9251C34.0951 26.6251 34.5081 27.3111 34.9301 27.9981C36.8171 31.0641 54.3851 61.1241 54.3851 61.1241L48.9161 69.5011L35.2031 46.9851Z" fill="white"/>
</svg>
