<svg width="16" height="16" viewBox="0 0 16 16" fill="none" xmlns="http://www.w3.org/2000/svg">
<path d="M12.2552 4.94891C12.1372 4.91319 12.0298 4.84902 11.9425 4.76204C11.8552 4.67507 11.7906 4.56796 11.7544 4.45015C11.5495 3.75901 11.2066 3.11659 10.7464 2.5617C10.2862 2.00681 9.71833 1.55097 9.07704 1.22173C8.43574 0.892486 7.73435 0.696674 7.01524 0.646124C6.29614 0.595574 5.57425 0.691336 4.8932 0.927623C4.21215 1.16391 3.58607 1.53582 3.05279 2.02087C2.51951 2.50593 2.09011 3.09406 1.79052 3.74974C1.49093 4.40541 1.32738 5.11502 1.30975 5.83568C1.29212 6.55634 1.42078 7.2731 1.68795 7.94264C1.7493 8.08378 1.76225 8.24125 1.72476 8.39051C1.68728 8.53978 1.60147 8.67245 1.48071 8.76785C0.949954 9.16185 0.535615 9.69204 0.281559 10.3023C0.0275034 10.9125 -0.0568148 11.5801 0.0375318 12.2344C0.184697 13.1186 0.643934 13.9209 1.33194 14.4955C2.01994 15.0702 2.89113 15.3793 3.78748 15.3666H9.33187V10.3094L8.47001 11.1713C8.40811 11.2332 8.33463 11.2823 8.25376 11.3158C8.17288 11.3493 8.0862 11.3665 7.99867 11.3665C7.91113 11.3665 7.82445 11.3493 7.74358 11.3158C7.66271 11.2823 7.58922 11.2332 7.52733 11.1713C7.46543 11.1094 7.41633 11.0359 7.38283 10.9551C7.34933 10.8742 7.33209 10.7875 7.33209 10.7C7.33209 10.6124 7.34933 10.5258 7.38283 10.4449C7.41633 10.364 7.46543 10.2905 7.52733 10.2286L8.5846 9.17136C8.77032 8.98561 8.99081 8.83826 9.23348 8.73773C9.47615 8.6372 9.73624 8.58545 9.99891 8.58545C10.2616 8.58545 10.5217 8.6372 10.7643 8.73773C11.007 8.83826 11.2275 8.98561 11.4132 9.17136L12.4705 10.2286C12.5324 10.2905 12.5815 10.364 12.615 10.4449C12.6485 10.5258 12.6657 10.6124 12.6657 10.7C12.6657 10.7875 12.6485 10.8742 12.615 10.9551C12.5815 11.0359 12.5324 11.1094 12.4705 11.1713C12.4086 11.2332 12.3351 11.2823 12.2542 11.3158C12.1734 11.3493 12.0867 11.3665 11.9992 11.3665C11.9116 11.3665 11.8249 11.3493 11.7441 11.3158C11.6632 11.2823 11.5897 11.2332 11.5278 11.1713L10.6659 10.3092V15.358C11.9928 15.3311 13.2643 14.8215 14.2424 13.9246C15.2206 13.0277 15.8382 11.805 15.9797 10.4855C16.0857 9.27602 15.774 8.06674 15.0964 7.05924C14.4189 6.05175 13.4165 5.30692 12.2563 4.94891H12.2552Z" fill="white"/>
</svg>
