<svg xmlns="http://www.w3.org/2000/svg" width="300" height="220" fill="none" viewBox="0 0 300 220">
  <path fill="#EBEBEB" d="M269.939 206.095h-19.873v.15h19.873v-.15Zm-71.207 1.631h-5.214v.15h5.214v-.15Zm50.736-7.2h-11.514v.15h11.514v-.15ZM57.39 201.534H31.478v.15H57.39v-.15Zm9.144 0h-3.798v.15h3.798v-.15Zm68.556 2.532H78.882v.15h56.208v-.15Zm7.11-34.386H26.351a3.426 3.426 0 0 1-3.425-3.425V3.396A3.426 3.426 0 0 1 26.351 0H142.2a3.427 3.427 0 0 1 3.426 3.426v162.829a3.428 3.428 0 0 1-3.426 3.425ZM26.351.12a3.282 3.282 0 0 0-3.276 3.276v162.859a3.282 3.282 0 0 0 3.276 3.275H142.2a3.283 3.283 0 0 0 3.276-3.276V3.396A3.28 3.28 0 0 0 142.2.12H26.351Zm245.635 169.56h-115.86a3.435 3.435 0 0 1-3.426-3.425V3.396A3.43 3.43 0 0 1 156.126 0h115.86a3.426 3.426 0 0 1 3.414 3.396v162.859a3.426 3.426 0 0 1-3.414 3.425ZM156.126.12a3.281 3.281 0 0 0-3.277 3.276v162.859a3.283 3.283 0 0 0 3.277 3.276h115.86a3.283 3.283 0 0 0 3.276-3.276V3.396A3.28 3.28 0 0 0 271.986.12h-115.86ZM300 196.44H0v.15h300v-.15Z"/>
  <path fill="#F0F0F0" d="M226.848 122.892h1.8v-21.546a8.998 8.998 0 0 1 8.399-9.09 8.85 8.85 0 0 1 9.282 8.4.448.448 0 0 0 .438.426h.924a.444.444 0 0 0 .409-.279.43.43 0 0 0 .029-.171 10.662 10.662 0 0 0-10.458-10.2c-5.958-.102-10.83 4.974-10.83 10.932l.007 21.528Z"/>
  <path fill="#E6E6E6" d="M189.312 125.244H176.52v70.854h12.792v-70.854Z"/>
  <path fill="#F5F5F5" d="M180.013 125.244h-138.6v70.854h138.6v-70.854Z"/>
  <path fill="#E0E0E0" d="M180.013 139.992h-138.6v1.2h34.05v54.9h1.2v-54.9h33.12v54.9h1.2v-54.9h33.126v54.9h1.2v-54.9h34.704v-1.2Z"/>
  <path fill="#E6E6E6" d="M72 171.492a1.2 1.2 0 0 1-1.2-1.2v-5.4a1.201 1.201 0 0 1 1.2-1.2 1.2 1.2 0 0 1 1.2 1.2v5.4a1.202 1.202 0 0 1-1.2 1.2Zm8.113 0a1.205 1.205 0 0 1-.849-.351 1.205 1.205 0 0 1-.351-.849v-5.4a1.195 1.195 0 0 1 .74-1.109 1.205 1.205 0 0 1 1.308.26c.225.225.352.531.352.849v5.4a1.202 1.202 0 0 1-1.2 1.2Zm60.545 0a1.2 1.2 0 0 1-1.2-1.2v-5.4a1.201 1.201 0 0 1 2.048-.849c.225.225.352.531.352.849v5.4a1.202 1.202 0 0 1-1.2 1.2Zm8.1 0a1.199 1.199 0 0 1-1.2-1.2v-5.4a1.202 1.202 0 0 1 1.2-1.2 1.201 1.201 0 0 1 1.2 1.2v5.4a1.201 1.201 0 0 1-1.2 1.2Z"/>
  <path fill="#E0E0E0" d="M192.312 123.69h-15.899v3.102h15.899v-3.102Z"/>
  <path fill="#EBEBEB" d="M181.211 123.69h-142.8v3.102h142.8v-3.102Z"/>
  <path fill="#E6E6E6" d="M258.588 125.244h-12.792v70.854h12.792v-70.854Z"/>
  <path fill="#F5F5F5" d="M249.287 125.244h-138.6v70.854h138.6v-70.854Z"/>
  <path fill="#E0E0E0" d="M249.287 139.992h-138.6v1.2h34.048v54.9h1.2v-54.9h33.126v54.9h1.2v-54.9h33.12v54.9h1.2v-54.9h34.704l.002-1.2Z"/>
  <path fill="#E6E6E6" d="M141.287 171.492a1.199 1.199 0 0 1-1.2-1.2v-5.4a1.202 1.202 0 0 1 1.2-1.2 1.2 1.2 0 0 1 1.2 1.2v5.4a1.201 1.201 0 0 1-1.2 1.2Zm8.113 0a1.2 1.2 0 0 1-1.2-1.2v-5.4a1.201 1.201 0 0 1 1.2-1.2 1.199 1.199 0 0 1 1.2 1.2v5.4a1.202 1.202 0 0 1-1.2 1.2Zm60.534 0a1.199 1.199 0 0 1-1.2-1.2v-5.4a1.202 1.202 0 0 1 1.2-1.2 1.2 1.2 0 0 1 1.2 1.2v5.4a1.201 1.201 0 0 1-1.2 1.2Zm8.1 0a1.2 1.2 0 0 1-1.201-1.2v-5.4a1.202 1.202 0 0 1 1.201-1.2 1.208 1.208 0 0 1 .848.351 1.206 1.206 0 0 1 .352.849v5.4a1.206 1.206 0 0 1-.741 1.109c-.146.06-.302.091-.459.091Z"/>
  <path fill="#E0E0E0" d="M261.589 123.69h-15.9v3.102h15.9v-3.102Z"/>
  <path fill="#EBEBEB" d="M250.488 123.69h-142.8v3.102h142.8v-3.102Z"/>
  <path fill="#E6E6E6" d="M210.3 124.044h47.333a1.146 1.146 0 0 0 .815-.338 1.153 1.153 0 0 0 .338-.814 1.146 1.146 0 0 0-.338-.815 1.153 1.153 0 0 0-.815-.337H210.3a1.152 1.152 0 1 0 0 2.304Z"/>
  <path fill="#E0E0E0" d="M222.323 122.082h1.794v-2.281h-1.794v2.281Z"/>
  <path fill="#F0F0F0" d="M221.556 120.372h3.338l-.648-3.988h-2.04l-.65 3.988Z"/>
  <path fill="#E0E0E0" d="M231.403 122.082h1.794v-2.281h-1.794v2.281Z"/>
  <path fill="#F0F0F0" d="M230.628 120.372h3.336l-.648-3.988h-2.034l-.654 3.988Z"/>
  <path fill="#F5F5F5" d="M215.695 117.721a1.717 1.717 0 0 0 1.71-1.71v-13.897h-3.426v13.896a1.715 1.715 0 0 0 1.716 1.711Z"/>
  <path fill="#F5F5F5" d="M213.601 102.599h4.198a.705.705 0 0 0 .703-.702.7.7 0 0 0-.703-.702h-4.198a.712.712 0 0 0-.497.206.713.713 0 0 0-.205.496.709.709 0 0 0 .205.497.712.712 0 0 0 .497.205Zm-5.346 15.122c.454 0 .889-.18 1.21-.501a1.71 1.71 0 0 0 .504-1.209v-13.897h-3.425v13.896a1.718 1.718 0 0 0 1.711 1.71v.001Z"/>
  <path fill="#F5F5F5" d="M206.173 102.599h4.17a.712.712 0 0 0 .496-.205.704.704 0 0 0 .206-.497.704.704 0 0 0-.702-.702h-4.17a.703.703 0 0 0-.702.702.709.709 0 0 0 .205.497.7.7 0 0 0 .497.205Zm-5.353 15.122a1.713 1.713 0 0 0 1.715-1.71v-13.897h-3.425v13.896a1.714 1.714 0 0 0 1.71 1.71v.001Z"/>
  <path fill="#F5F5F5" d="M198.733 102.599h4.198a.709.709 0 0 0 .497-.205.7.7 0 0 0 .205-.497.704.704 0 0 0-.702-.702h-4.198a.703.703 0 0 0-.702.702c0 .186.074.365.205.497a.707.707 0 0 0 .497.205Zm-5.347 15.122a1.713 1.713 0 0 0 1.711-1.71v-13.897h-3.427v13.896a1.718 1.718 0 0 0 1.715 1.71l.001.001Z"/>
  <path fill="#F5F5F5" d="M191.299 102.599h4.17a.712.712 0 0 0 .496-.205.704.704 0 0 0 .206-.497.7.7 0 0 0-.433-.649.712.712 0 0 0-.269-.053h-4.17a.703.703 0 0 0-.702.702c0 .186.074.365.205.497a.707.707 0 0 0 .497.205Z"/>
  <path fill="#EBEBEB" d="M187.835 103.608v19.578h1.597v-1.956h30.215v1.956h1.591v-19.578h-33.403Zm1.597 13.8v-12.204h30.215v14.435h-30.215v-2.231Z"/>
  <path fill="#E0E0E0" d="M70.11 100.158H58.95a4.14 4.14 0 0 0-4.134 4.134v1.38h2.22v-1.38a1.915 1.915 0 0 1 1.914-1.914h11.16a1.91 1.91 0 0 1 1.909 1.914v1.38h2.22v-1.38a4.132 4.132 0 0 0-4.13-4.134Z"/>
  <path fill="#E6E6E6" d="M83.34 108.689v12.51a3.002 3.002 0 0 1-3 3H53.172a3.002 3.002 0 0 1-3-3v-12.51a3 3 0 0 1 3-3h27.145a2.991 2.991 0 0 1 2.136.871 2.984 2.984 0 0 1 .887 2.129Z"/>
  <path fill="#F5F5F5" d="M79.108 108.689v12.51a3.001 3.001 0 0 1-3 3H48.94a3.002 3.002 0 0 1-3-3v-12.51a3.001 3.001 0 0 1 3-3h27.145a2.992 2.992 0 0 1 2.136.871 2.983 2.983 0 0 1 .887 2.129Z"/>
  <path fill="#fff" d="M69.708 107.82H55.542v14.166h14.166V107.82Z"/>
  <path fill="#E0E0E0" d="M63.828 111.006h-2.394v8.238h2.394v-8.238Z"/>
  <path fill="#E0E0E0" d="M58.512 113.922v2.394h8.238v-2.394h-8.238ZM45.69 8.688h-1.08V92.91h1.08V8.688Zm58.218 0h-1.08V92.91h1.08V8.688Z"/>
  <path fill="#EBEBEB" d="M108.137 13.978H40.38L38.76 10.2h70.998l-1.621 3.778Zm0 5.192H40.38l-1.62-3.78h70.998l-1.621 3.78Zm0 5.189H40.38l-1.62-3.779h70.998l-1.621 3.779Zm0 5.191H40.38l-1.62-3.78h70.998l-1.621 3.78Zm0 5.189H40.38l-1.62-3.779h70.998l-1.621 3.779Zm0 5.191H40.38l-1.62-3.78h70.998l-1.621 3.78Zm0 5.189H40.38l-1.62-3.779h70.998l-1.621 3.779Zm0 5.191H40.38l-1.62-3.779h70.998l-1.621 3.779Zm0 5.188H40.38l-1.62-3.778h70.998l-1.621 3.779Zm0 5.192H40.38l-1.62-3.779h70.998l-1.621 3.779Zm0 5.185H40.38L38.76 62.1h70.998l-1.621 3.774Zm0 5.189H40.38l-1.62-3.773h70.998l-1.621 3.773Zm0 5.19H40.38l-1.62-3.779h70.998l-1.621 3.779Zm0 5.19H40.38l-1.62-3.779h70.998l-1.621 3.779Zm0 5.19H40.38l-1.62-3.779h70.998l-1.621 3.779Zm0 5.19H40.38l-1.62-3.779h70.998l-1.621 3.779Z"/>
  <path fill="#E0E0E0" d="M109.764 91.825H38.76v2.16h71.004v-2.16Zm2.791-86.36H35.971v5.04h76.584v-5.04ZM36.846 56.202a.87.87 0 0 1-.846-.869v-29.4a.871.871 0 0 1 .87-.875.87.87 0 0 1 .87.874v29.401a.87.87 0 0 1-.894.87Z"/>
  <path fill="#E0E0E0" d="M37.163 9.498h-.63v17.46h.63V9.498Z"/>
  <path fill="#F5F5F5" d="M149.999 219.426c64.25 0 116.334-3.041 116.334-6.792s-52.084-6.792-116.334-6.792-116.334 3.041-116.334 6.792 52.085 6.792 116.334 6.792Z"/>
  <path fill="#FF4572" d="m215.151 50.905-19.662 6.847.247.709 19.662-6.847-.247-.709Z"/>
  <path fill="#fff" d="M250.32 48.276a22.893 22.893 0 0 1-22.296 22.806 22.896 22.896 0 0 1-23.46-21.606v-1.662a22.797 22.797 0 0 1 7.164-16.16 23.268 23.268 0 0 1 4.662-3.414c.324-.168.648-.342.98-.498a22.894 22.894 0 0 1 30.092 9.449 22.892 22.892 0 0 1 2.878 11.107l-.02-.022Z"/>
  <path fill="#FF8B7B" d="M235.427 51.348c-.008.14-.028.278-.06.414a.977.977 0 0 1-.942.774h-.175c-.144 10.056-6.282 14.124-7.164 14.67a12.209 12.209 0 0 1-7.417 1.8 2.82 2.82 0 0 0-1.44.245 22.917 22.917 0 0 1-13.668-19.8v-1.662a22.794 22.794 0 0 1 7.164-16.158 23.272 23.272 0 0 1 4.662-3.414c.324-.168.648-.342.98-.498a35.295 35.295 0 0 0 3.24 3.198 5.89 5.89 0 0 1 4.716 5.003c4.284 3.726 7.002 8.916 8.814 14.298.192.03.38.077.564.138a1.012 1.012 0 0 1 .726.992Z"/>
  <path fill="#fff" d="M234.217 51.431c-.011.126-.031.25-.06.372a.792.792 0 0 1-.114.276.68.68 0 0 1-.126.162.97.97 0 0 1-.492.264.506.506 0 0 1-.138 0h-.175v.18a8.19 8.19 0 0 1-.042 1.015c-.6 8.634-5.922 12.168-6.714 12.672-5.07 3.186-9.39.87-9.42.846-4.656-3.39-4.62-9.96-4.513-13.32.36-11.196-.102-17.574-.696-22.284a23.296 23.296 0 0 1 4.663-3.414 35.108 35.108 0 0 0 3.6 3.696l.21.193a5.396 5.396 0 0 1 3.216 1.901.905.905 0 0 1 .096.12c.578.726.96 1.587 1.11 2.502 0 0 .03.132.042.198 3.846 3.336 6.342 7.92 8.052 12.72.096.264.18.522.27.78.191.027.378.073.558.138a.899.899 0 0 1 .402.234l.054.054a.949.949 0 0 1 .217.695Z" opacity=".4"/>
  <path fill="#fff" d="M234.21 50.749a8.978 8.978 0 0 1-1.938-.444c-.6-.24-1.056-.636-1.084-1.08 1.33.058 2.584.706 3.022 1.524Zm-.167.395a9 9 0 0 0-4.398-.156 3.055 3.055 0 0 0 1.692.6c.667.03 1.336.001 1.998-.084.174-.006.864-.313.708-.36Zm.066.629a8.497 8.497 0 0 0-3.774.665 5.165 5.165 0 0 0 3.774-.665Zm.065.355a6.198 6.198 0 0 0-2.82 2.298 3.97 3.97 0 0 0 1.801-.81 2.6 2.6 0 0 0 1.019-1.488Z"/>
  <path fill="#fff" d="M228.787 59.4a4.033 4.033 0 0 0 1.597-2.64 4.647 4.647 0 0 1 1.714-2.838 9.813 9.813 0 0 1-2.856 1.14 4.6 4.6 0 0 0-3.234 3.222 5.581 5.581 0 0 1 2.43-2.58c.828-.402 1.714-.528 2.49-.846-.696.534-.81 1.242-1.074 2.076a7.26 7.26 0 0 1-1.458 2.67l.391-.203Z"/>
  <path fill="#fff" d="M226.927 44.929c.408-1.032 0-2.473-.805-2.934a7.473 7.473 0 0 0-1.38-2.45 1.685 1.685 0 0 0-2.064-.454c-.822-.45-1.92-1.092-2.736-.6a3.06 3.06 0 0 0-1.152 1.728 4.268 4.268 0 0 0-.162 2.358c.198.77.792 1.386 1.404 1.266-.3.69.06 1.272.504 1.8a2.37 2.37 0 0 0 1.679.816c.6.06 1.267.385 1.878.426a1.592 1.592 0 0 0 2.052.15c.656-.456.446-1.254.782-2.106Z" opacity=".6"/>
  <path fill="#fff" d="M231.554 49.884c-.271-.245-.439-.306-.69-.558a9.36 9.36 0 0 0-3.426-2.118c-.788-.2-1.56-.458-2.309-.774-.703-.366-1.47-.864-1.62-1.644.443.491.971.898 1.56 1.2.444.222 1.056.642 1.536.528.03-.6-.786-1.134-1.11-1.236a1.335 1.335 0 0 1 1.242.762c.083.21.19.412.318.6.19.209.432.364.701.45 1.295.477 2.48 1.21 3.486 2.154.245.258.095.353.312.636Zm-1.154 1.044a3.187 3.187 0 0 1-2.22-.469c-.822-.426-1.86-1.055-2.784-1.014-.708.035-1.038.282-1.968.096a3.561 3.561 0 0 1-1.8-1.17c-.288-1.14-.874-1.446-1.452-1.536a1.719 1.719 0 0 1 .996 1.014.909.909 0 0 1 0 .36c0 .114-.234.138-.497.09a12.19 12.19 0 0 1-2.82-.6c-.12-.047-.354-.42-.455-.504-.444-.385-.324-.402-.366-.6-.168.198-.042.342.138.534.18.192.54.6.45.84a5.337 5.337 0 0 1-.6.36c-.444.282-.762 1.044-1.584 1.2.377.078.653-.156.96-.396.255-.268.532-.515.828-.738.69-.385 1.614-.228 2.4-.084l1.44.276a2.53 2.53 0 0 1 1.068.516c.674.55 1.533.818 2.4.75.202-.022.403-.058.6-.108a2.454 2.454 0 0 1 1.686.282c1.399.672 2.184 1.2 3.456 1.104a.346.346 0 0 0 .252-.096c.052-.035-.044-.125-.128-.107Z"/>
  <path fill="#fff" d="M229.321 56.94a1.197 1.197 0 0 0-.888 1.032 1.886 1.886 0 0 0-1.259 1.278 4.97 4.97 0 0 0-.162 1.86l-1.41 1.596a5.8 5.8 0 0 1-1.4 1.284 8.853 8.853 0 0 0-3.702 0 .83.83 0 0 0-.6-1.044 1.072 1.072 0 0 0-1.139.6 1.523 1.523 0 0 0 0 1.332c.208.411.515.764.894 1.026.343.217.673.453.99.708.282.258.539.6.918.63.498.042.9-.48 1.399-.45.24 0 .462.162.702.186.355-.011.691-.157.942-.408a8.9 8.9 0 0 0 1.843-1.734c.164-.285.366-.547.6-.78.354-.222.73-.41 1.122-.557a2.272 2.272 0 0 0 1.2-1.8c.804-.42 1.2-2.755 1.169-3.66l-1.219-1.1Z" opacity=".6"/>
  <path fill="#fff" d="M229.199 58.884a3.437 3.437 0 0 1-.36 2.55 3.76 3.76 0 0 0 .756-3.156c-.168.24-.251.36-.396.606Zm-1.761-2.79a2.4 2.4 0 0 0-2.309.6 3.173 3.173 0 0 1 2.099-.444c.132-.132.072-.042.21-.156Zm2.361-3.18a2.688 2.688 0 0 1-1.836.528 6.873 6.873 0 0 1-1.044-.432 1.494 1.494 0 0 0-1.134-.144c.106-.074.224-.128.348-.162.846-.15 1.458.6 2.309.534a4.87 4.87 0 0 0 1.884-.823c.24-.137.505-.06.78-.078l-.15.048a2.71 2.71 0 0 0-1.158.528l.001.001Z"/>
  <path fill="#fff" d="M229.115 53.22c-1.002.707-2.124 1.577-3.149 2.238a4.607 4.607 0 0 0-1.8 2.07 6.796 6.796 0 0 1-.318 2.292c.05.087.104.171.162.252.128.266.154.57.072.852a1.676 1.676 0 0 0 .108 1.458.702.702 0 0 1-.402-.708c.029-.288.081-.573.156-.852a.826.826 0 0 0-.252-.75c-.569.031-1.11.26-1.53.648a1.8 1.8 0 0 1 1.452-.906 2.473 2.473 0 0 0 .096-1.938 2.49 2.49 0 0 1-1.53.245 3.783 3.783 0 0 0-1.29 1.536 4.1 4.1 0 0 1 .792-1.536 1.997 1.997 0 0 0-.888-.12 4.73 4.73 0 0 1 1.542-.126c.558 0 1.386-.162 1.572-.684.396-1.08 1.488-1.74 2.46-2.358.708-.455 1.362-.942 2.07-1.392.251-.222.515-.12.677-.222Zm-8.314 4.782-.096.035.096-.035Zm3.402-8.136c-.442.083-.84.321-1.122.672a1.746 1.746 0 0 1-1.134.642c-.156 0-.306-.042-.468-.054a.637.637 0 0 0-.462.066.727.727 0 0 1 .492-.27c.192-.02.382-.051.57-.096.6-.18.9-.864 1.469-1.098.213.07.432.117.655.138Z"/>
  <path fill="#fff" d="M227.623 51.54a1.831 1.831 0 0 0-1.362-.552 5.277 5.277 0 0 0-1.488.27l-1.734.48c-.35.079-.685.215-.99.402a1.074 1.074 0 0 0-.498.907 1.92 1.92 0 0 0-1.752.87 4.707 4.707 0 0 0-.57 1.764 4.325 4.325 0 0 1-.6 1.752c-.204.288-.684.558-.87.858a1.922 1.922 0 0 0-.21 1.308c.12.324.09.12.419 0a6.26 6.26 0 0 1 2.749-1.878c.366-.132 2.34-.75 2.796-1.956.24-.636.774-1.338 1.452-1.338a3.602 3.602 0 0 0 2.436-1.026c.278-.212.5-.488.648-.805.12-.354-.198-.792-.426-1.056Z" opacity=".6"/>
  <path fill="#fff" d="M229.949 51.193c-.924-.343-2.79 1.152-3.75.912a3.258 3.258 0 0 1-.792-.36 1.144 1.144 0 0 0-.912-.18c.211.032.415.103.6.21.33.231.695.41 1.08.528-.51.186-.756.63-1.295.564a8.128 8.128 0 0 1-1.326-.426 1.264 1.264 0 0 0-1.302.222c1.134-.455 1.758.6 2.67.396a8.412 8.412 0 0 0-1.968 1.59 3.37 3.37 0 0 1-1.686 1.002c-.244.084-.564.186-.6.45.599-.202 1.184-.44 1.753-.714.503-.33 1.493-1.428 2.004-1.764a22.855 22.855 0 0 1 5.526-2.43h-.002Z"/>
  <path fill="#fff" d="M221.699 55.644a.602.602 0 0 1 .084.6 3.432 3.432 0 0 1-.276.552.883.883 0 0 0-.12.6c.12-.175.244-.378.365-.552a2.3 2.3 0 0 0 .265-.455 1.093 1.093 0 0 0 0-.792.49.49 0 0 0-.318.047Z"/>
  <path fill="#fff" d="M227.004 50.73a1.004 1.004 0 0 0 .446-1.36 1 1 0 0 0-.356-.386 6.387 6.387 0 0 0-1.71-.78c-.99-.281-.81-.935-1.83-1.11-3.33-.558-2.916-.846-3.654-1.308-.558-.354-.426-.918-.984-1.272s-1.632-.426-2.25-.564c-.618-.138-1.338.51-1.77.98-.432.47-.474 1.29-.654 1.968-.21.78-.672 1.504-.678 2.316a2.15 2.15 0 0 0 1.71 2.052 1.311 1.311 0 0 0 .756 1.554 2.208 2.208 0 0 0 1.842-.138 1.723 1.723 0 0 0 1.338.138 5.747 5.747 0 0 0 2.16-1.092c.112-.103.237-.192.372-.264a.508.508 0 0 1 .438 0 10.004 10.004 0 0 0 3.132-.858 1.919 1.919 0 0 0 1.578.18l.114-.055Z" opacity=".6"/>
  <path fill="#fff" d="M213.36 54.834c.359.653.61 1.36.744 2.093.03.51-.102 1.105.252 1.47a1.235 1.235 0 0 0 1.2.18 4.364 4.364 0 0 0 3.096-3.27 1.37 1.37 0 0 0-.078-.967 1.577 1.577 0 0 0-1.488-.533 2.018 2.018 0 0 1-1.572-.36 2.946 2.946 0 0 1-.474-1.062c-.138-.366-.45-.738-.834-.69-.51.066-.648.804-.81 1.2a2.355 2.355 0 0 0-.035 1.938h-.001Zm15.751-.312a1.286 1.286 0 0 0-1.386-.894c-.354.075-.679.25-.936.505-1.2 1.014-2.106.695-2.568 1.487-1.548 2.653-1.362 1.687-2.142 2.03-.78.343-.348-.282-2.064.684-.738.414-1.362 2.029-.798 2.663.24.277.102.936.444.822a1.363 1.363 0 0 1 1.056-.09c.348.175.454.63.737.907.38.293.855.434 1.332.396a3.39 3.39 0 0 0 2.13-.39c.457-.366.754-.896.828-1.477.096-.57.534-.6.48-1.2a3.602 3.602 0 0 1 1.242-3.042c.349-.312.745-.57 1.074-.906.33-.336.799-.439.571-1.495Z" opacity=".6"/>
  <path fill="#263238" d="M220.5 31.969a.879.879 0 0 0-.516 1.014c.11.405.316.777.6 1.085a1.097 1.097 0 0 0-.175.948 1.206 1.206 0 0 0 .738.684 1.231 1.231 0 0 0-.066 1.2 1.329 1.329 0 0 0 1.05.69.595.595 0 0 0 .444.54.773.773 0 0 0 .42.042 2.492 2.492 0 0 1 1.133.042l.216.066c.12.035.252.078.372-.084a.512.512 0 0 0 .096-.282 1.8 1.8 0 0 0-.306-1.11 1.987 1.987 0 0 0-.048-1.494 2.033 2.033 0 0 0-1.026-1.116 1.433 1.433 0 0 0-.462-1.2 4.07 4.07 0 0 0-1.092-.665l-1.038-.492a.456.456 0 0 0-.252-.048c-.112.01-.088.065-.088.18Z"/>
  <path fill="#000" d="M234.029 50.501a4.51 4.51 0 0 0 .054 1.8.874.874 0 0 0 .822-.492.912.912 0 0 0-.108-.966 1.043 1.043 0 0 0-.77-.341h.002Z" opacity=".3"/>
  <path fill="#FF4572" d="M227.43 25.386a22.891 22.891 0 1 1-22.866 24.066v-1.661a22.793 22.793 0 0 1 7.164-16.158 23.268 23.268 0 0 1 4.662-3.415c.324-.167.648-.342.979-.497a22.72 22.72 0 0 1 10.08-2.334m0-.75a23.323 23.323 0 0 0-10.41 2.4c-.348.168-.69.342-1.002.51a24.199 24.199 0 0 0-4.8 3.522 23.488 23.488 0 0 0-7.398 16.692v1.716a23.646 23.646 0 1 0 23.616-24.852l-.006.012Zm-69.33 63.477-19.455 23.829.581.474L158.7 88.588l-.581-.474Z"/>
  <path fill="#fff" d="M197.196 66.996a25.627 25.627 0 0 1-24.6 25.632h-2.25a25.405 25.405 0 0 1-8.814-1.992l-.438-.192a25.676 25.676 0 0 1-12.55-34.866 25.683 25.683 0 0 1 12.55-12.037 25.495 25.495 0 0 1 8.184-2.099 25.638 25.638 0 0 1 27.9 25.554h.018Z"/>
  <path fill="#FF8B7B" d="M190.049 58.447s-.09.87-.228 2.093c-.228 2.088-.6 5.203-.98 6.756-1.828 7.8-3.55 17.017-4.428 21.9a25.504 25.504 0 0 1-11.802 3.432h-2.248l.852-2.514.66-1.95.12-.36.714-2.1.108-.323.522-1.542.27-.798.276-.822.138-.385.108-.33.552-1.632.282-.834.336-.996.228-.665v-.06l.294-.888.114-.324.204-.6.108-.33 1.146-3.378.378-1.122.245-.726.396-1.152.762-2.268.6-1.8.21-.126h.035l.156-.096.096-.054.192-.12.222-.138 9.362-5.748Zm-28.936-14.905v46.903a25.677 25.677 0 0 1-15.151-21.483 25.675 25.675 0 0 1 15.151-25.42Z"/>
  <path fill="#FF8B7B" d="M161.113 43.542v46.903a25.677 25.677 0 0 1-15.151-21.483 25.675 25.675 0 0 1 15.151-25.42Z"/>
  <path fill="#000" d="M170.54 92.635h-.175a25.408 25.408 0 0 1-8.816-1.994l-.438-.192a25.48 25.48 0 0 1-7.104-4.724 33.682 33.682 0 0 1-.474-6.066 79.505 79.505 0 0 1 1.11-10.961 6.241 6.241 0 0 1 .462-1.872c.264-.547.738-.955 1.2-.75 1.778.77 14.97 22.856 14.235 26.559Z" opacity=".2"/>
  <path fill="#000" d="M190.049 58.447s-.09.87-.228 2.093c-.228 2.088-.6 5.203-.98 6.756-1.828 7.8-3.55 17.017-4.428 21.9a25.504 25.504 0 0 1-11.802 3.432h-2.248l.852-2.514.66-1.95.12-.36.714-2.1.108-.323.522-1.542.27-.798.276-.822.138-.385.108-.33.552-1.632.282-.834.336-.996.228-.665v-.06l.294-.888.114-.324.204-.6.108-.33 1.146-3.378.378-1.122.245-.726.396-1.152.762-2.268.6-1.8.21-.126h.035l.156-.096.096-.054.192-.12.222-.138 9.362-5.748Z" opacity=".2"/>
  <path fill="#FF8B7B" d="M195.601 58.105c-2 .634-3.938 1.45-5.79 2.436-.705.388-1.386.82-2.04 1.29-2.4 1.714-4.35 4.122-5.076 6.96-1.326 5.136 1.554 10.716 0 15.792a11.05 11.05 0 0 1-5.495 6.383 15.261 15.261 0 0 1-6.798 1.662h-.042c-.51 0-1.014 0-1.518-.035a18.175 18.175 0 0 1-7.296-1.956 15.222 15.222 0 0 1-4.086-3c-2.922-3.079-4.368-7.632-3.289-11.736.564-2.136 1.764-4.068 2.275-6.228.419-1.8.935-16.044 1.2-24.233a25.442 25.442 0 0 1 11.645-3.972c-.03.942-.048 1.86-.042 2.015.067 1.477 1.098 3.186 2.4 3.5 1.61.384 3.289-.217 4.729-1.02.966-.54 1.889-1.165 2.855-1.693a12.65 12.65 0 0 1 1.435-.696c.222-.09.45-.167.684-.24a25.745 25.745 0 0 1 14.249 14.77Z"/>
  <path fill="#000" d="M169.963 83.022a3.438 3.438 0 1 0 0-6.875 3.438 3.438 0 0 0 0 6.875Z" opacity=".3"/>
  <path fill="#fff" d="M171.959 84.84a.162.162 0 0 1-.156-.12 4.672 4.672 0 0 0-.516-1.535.777.777 0 0 1-.348-.709.159.159 0 0 1 .064-.101.16.16 0 0 1 .116-.03.158.158 0 0 1 .108.06.167.167 0 0 1 .027.056.167.167 0 0 1 .003.063c-.03.186.168.36.228.408.319.526.533 1.108.63 1.715a.168.168 0 0 1-.12.192l-.036.002Zm-4.438 4.272a.158.158 0 0 1-.111-.046.157.157 0 0 1 .111-.266.19.19 0 0 0 .102-.126.723.723 0 0 0 0-.3c-.048-.336-.12-.87-.186-1.41a44.406 44.406 0 0 0-.186-1.404.142.142 0 0 1 .002-.062.16.16 0 0 1 .071-.098.157.157 0 0 1 .059-.02.162.162 0 0 1 .186.132c.048.336.12.874.186 1.41.066.535.132 1.068.186 1.404.027.138.027.28 0 .42a.475.475 0 0 1-.366.366h-.054Zm-6.865-4.799a.601.601 0 0 1-.408-.15.16.16 0 0 1 .007-.221.16.16 0 0 1 .221-.001.354.354 0 0 0 .343.03 2.33 2.33 0 0 0 .984-1.038 3.39 3.39 0 0 1 .714-.906c.431-.283.945-.41 1.458-.36a1.722 1.722 0 0 0 1.692-.696l.209-.222a1.293 1.293 0 0 1 .991-.468.163.163 0 0 1 .109.053.165.165 0 0 1 .041.115.168.168 0 0 1-.175.15 1 1 0 0 0-.738.372l-.198.216a2.576 2.576 0 0 1-.54.504 2.587 2.587 0 0 1-1.386.294 2.05 2.05 0 0 0-1.266.287 3.23 3.23 0 0 0-.642.829c-.242.5-.64.909-1.134 1.164a.773.773 0 0 1-.282.048Z"/>
  <path fill="#fff" d="M161.911 82.548a3.982 3.982 0 0 1-1.272-.204.164.164 0 0 1-.054-.03.147.147 0 0 1-.038-.048.158.158 0 0 1-.01-.12.162.162 0 0 1 .204-.102 3.76 3.76 0 0 0 1.482.175.157.157 0 0 1 .158.083c.01.019.016.04.017.06a.16.16 0 0 1-.144.176l-.343.01Zm-2.119-5.67a.763.763 0 0 1-.336-.078.152.152 0 0 1-.079-.09.157.157 0 0 1-.006-.062.17.17 0 0 1 .11-.136.162.162 0 0 1 .119.006.602.602 0 0 0 .636-.132c.193-.189.348-.413.455-.66a.16.16 0 0 1 .163-.11.165.165 0 0 1 .12.064.165.165 0 0 1 .029.133.152.152 0 0 1-.03.063 2.29 2.29 0 0 1-.534.756c-.18.155-.409.242-.647.246Z"/>
  <path fill="#fff" d="M163.8 76.902a4.488 4.488 0 0 1-3.665-1.8.153.153 0 0 1-.035-.119.158.158 0 0 1 .019-.06.165.165 0 0 1 .099-.075.158.158 0 0 1 .168.062 4.207 4.207 0 0 0 3.864 1.626.17.17 0 0 1 .116.038.17.17 0 0 1 .059.106.162.162 0 0 1-.143.175c-.16.025-.32.04-.482.047Z"/>
  <path fill="#fff" d="M168.108 78.894h-.066a27.96 27.96 0 0 1-5.094-2.826.163.163 0 0 1-.042-.222.152.152 0 0 1 .103-.065.16.16 0 0 1 .119.03 27.892 27.892 0 0 0 5.04 2.79.16.16 0 0 1 .072.073.158.158 0 0 1 .014.103.166.166 0 0 1-.051.09.164.164 0 0 1-.095.04v-.013ZM165.726 72a1.575 1.575 0 0 1-1.332-.756.173.173 0 0 1 .06-.222.168.168 0 0 1 .222.06 1.199 1.199 0 0 0 1.152.6 3.068 3.068 0 0 0-.389-2.25.157.157 0 0 1 .045-.22.158.158 0 0 1 .219.045 3.398 3.398 0 0 1 .414 2.604.155.155 0 0 1-.045.08.152.152 0 0 1-.081.04 1.262 1.262 0 0 1-.265.019Z"/>
  <path fill="#fff" d="M168.799 77.088a.156.156 0 0 1-.144-.096 10.034 10.034 0 0 0-1.698-3.342 3.835 3.835 0 0 1-1.152-1.8.16.16 0 0 1 .026-.119.16.16 0 0 1 .22-.044.153.153 0 0 1 .043.044c.012.018.02.038.023.059a3.658 3.658 0 0 0 1.05 1.632 10.045 10.045 0 0 1 1.8 3.456.167.167 0 0 1-.09.21h-.078Zm1.674-.534a.192.192 0 0 1-.12-.048.167.167 0 0 1 0-.228.47.47 0 0 0 .048-.468 2.08 2.08 0 0 0-.132-.282 3.05 3.05 0 0 1-.156-.342.94.94 0 0 1 0-.665 2.442 2.442 0 0 0-.12-2.226.167.167 0 0 1 0-.228.162.162 0 0 1 .222 0c.238.382.377.817.406 1.266.03.449-.052.898-.238 1.308a.602.602 0 0 0 0 .426c.033.103.077.201.132.294.056.105.106.213.15.324a.776.776 0 0 1-.126.81.159.159 0 0 1-.066.06Z"/>
  <path fill="#fff" d="M170.492 73.164a.178.178 0 0 1-.096-.03.158.158 0 0 1-.065-.104.163.163 0 0 1 .003-.062.15.15 0 0 1 .027-.056c.561-.78.866-1.715.87-2.676 0-.043.017-.084.047-.115a.164.164 0 0 1 .115-.047.162.162 0 0 1 .156.162 4.91 4.91 0 0 1-.93 2.862.153.153 0 0 1-.126.066h-.001Zm2.357 5.358a.148.148 0 0 1-.132-.072.171.171 0 0 1-.026-.058.154.154 0 0 1 .068-.165c.465-.31.795-.787.924-1.331 0-.427.87-1.069.906-1.092.187-.135.388-.25.6-.343l.216-.108c.264-.13.557-.193.852-.18.264 0 .385 0 .6-.342.032-.286.08-.57.144-.852.06-.273.106-.55.138-.828a.161.161 0 0 1 .159-.13.163.163 0 0 1 .159.13 5.207 5.207 0 0 1-.144.912 7.74 7.74 0 0 0-.138.829.172.172 0 0 1 0 .09.835.835 0 0 1-.882.533 1.397 1.397 0 0 0-.708.15l-.228.109a3.765 3.765 0 0 0-.558.306c-.36.27-.774.696-.774.874a2.53 2.53 0 0 1-1.068 1.56.146.146 0 0 1-.109.006l.001.002Z"/>
  <path fill="#fff" d="m178.203 75.198-1.2-.162a.161.161 0 0 1-.138-.18.167.167 0 0 1 .18-.138l1.2.162a.163.163 0 0 1 .132.18.16.16 0 0 1-.114.133.156.156 0 0 1-.061.005h.001Zm-2.109 1.23h-1.752a.16.16 0 0 1-.114-.047.16.16 0 0 1 0-.229.16.16 0 0 1 .114-.047h1.752a.165.165 0 0 1 .134.034.166.166 0 0 1 .044.056.164.164 0 0 1-.044.194.16.16 0 0 1-.134.034v.005Zm-.823-.666a.156.156 0 0 1-.15-.12 1.155 1.155 0 0 1 .09-.6 1.59 1.59 0 0 0 .084-.42.16.16 0 0 1 .018-.12.162.162 0 0 1 .294.036c.017.204-.014.41-.09.6a1.373 1.373 0 0 0-.09.42.16.16 0 0 1-.016.12.158.158 0 0 1-.098.072l-.042.012Zm.025 6.594a1.497 1.497 0 0 1-1.098-.42 1.984 1.984 0 0 1-.665-.641l-.03-.03-.09-.12a1.549 1.549 0 0 0-.276-.307.354.354 0 0 0-.378-.06.159.159 0 1 1-.168-.27.666.666 0 0 1 .738.078c.13.104.243.228.336.366l.114.144c.36.455.492.534.54.546a.186.186 0 0 1 .09.048 1.234 1.234 0 0 0 1.092.33c.284-.02.565-.069.839-.144a6.21 6.21 0 0 1 1.428-.175 9.107 9.107 0 0 0 2.454-.324.163.163 0 0 1 .198.114.166.166 0 0 1-.12.198 9.436 9.436 0 0 1-2.538.33 6.21 6.21 0 0 0-1.362.18 8.185 8.185 0 0 1-.87.15c-.077.008-.156.01-.234.006v.001Z"/>
  <path fill="#fff" d="M177.721 82.032a.162.162 0 0 1-.138-.084.49.49 0 0 1 0-.432.766.766 0 0 1 .486-.402c.199-.035.402-.035.6 0h.282c.297-.008.582-.12.805-.318a.168.168 0 0 1 .228 0 .155.155 0 0 1 0 .222 1.59 1.59 0 0 1-1.015.396 2.706 2.706 0 0 1-.312 0 1.511 1.511 0 0 0-.468 0 .437.437 0 0 0-.276.228.163.163 0 0 0 0 .15.165.165 0 0 1 .011.122.164.164 0 0 1-.077.094.167.167 0 0 1-.126.024Zm.222 1.476a1.528 1.528 0 0 1-.948-.408c-.096-.09-.192-.192-.288-.288a2.255 2.255 0 0 0-.672-.54.152.152 0 0 1-.101-.143.14.14 0 0 1 .011-.061.167.167 0 0 1 .21-.09c.297.147.562.35.78.6.09.09.18.186.276.27.294.264.72.444 1.015.252a.15.15 0 0 1 .117-.02.156.156 0 0 1 .121.126.16.16 0 0 1-.026.117.154.154 0 0 1-.045.041.771.771 0 0 1-.45.144Z"/>
  <path fill="#fff" d="M177.449 83.286a.169.169 0 0 1-.12-.06.155.155 0 0 1-.034-.171.153.153 0 0 1 .034-.051l.852-.708a.162.162 0 1 1 .204.245l-.858.708a.158.158 0 0 1-.078.035v.002Zm-5.416 4.944h-.072a.648.648 0 0 1-.324-.564c.001-.169.027-.337.078-.498v-.054a5.39 5.39 0 0 0 .042-2.519.16.16 0 0 1 .105-.183.16.16 0 0 1 .195.082 2.758 2.758 0 0 0 2.154 1.5h.156c.174-.01.348.009.516.053a.666.666 0 0 1 .51.6.16.16 0 0 1-.162.156.156.156 0 0 1-.156-.156c0-.138-.15-.252-.282-.294a1.634 1.634 0 0 0-.426-.034h-.168a3.004 3.004 0 0 1-2.016-1.056c.061.65.006 1.306-.162 1.938v.06c-.041.13-.065.265-.072.402a.365.365 0 0 0 .15.294c.037.02.065.053.079.093a.166.166 0 0 1-.007.122.162.162 0 0 1-.138.058Z"/>
  <path fill="#fff" d="M174.324 87.15a.16.16 0 0 1-.083-.023.158.158 0 0 1-.061-.062 2.098 2.098 0 0 1-.252-1.007.16.16 0 0 1 .048-.115.16.16 0 0 1 .114-.047c.043 0 .084.017.115.047.03.03.047.072.047.115-.005.297.067.59.21.851a.16.16 0 0 1-.066.216l-.072.024Zm-9.227.373a.137.137 0 0 1-.144-.216 1.07 1.07 0 0 1 .839-.45h.042c.192-.035.51-.156.504-.36a.935.935 0 0 1 .385-.792c.09-.054.192-.096.294-.144a1.4 1.4 0 0 0 .27-.132c.393-.337.647-.807.714-1.32a2.016 2.016 0 0 1 .99-1.452.156.156 0 0 1 .204.084.163.163 0 0 1-.084.21c-.454.18-.66.726-.798 1.23a2.397 2.397 0 0 1-.857 1.518 1.888 1.888 0 0 1-.313.156c-.089.042-.175.078-.257.126a.651.651 0 0 0-.229.492c0 .408-.39.6-.756.696h-.048c-.257.048-.521.102-.6.282a.171.171 0 0 1-.156.072Z"/>
  <path fill="#fff" d="M166.303 88.428a.151.151 0 0 1-.108-.04.153.153 0 0 1-.048-.104 3.538 3.538 0 0 0-.3-1.2.152.152 0 0 1-.044-.112.147.147 0 0 1 .108-.138.143.143 0 0 1 .061-.005.16.16 0 0 1 .058.02.154.154 0 0 1 .045.043c.203.439.325.91.36 1.392a.151.151 0 0 1-.007.063.164.164 0 0 1-.143.112l.018-.03Zm2.357-.504a.163.163 0 0 1-.144-.102 1.201 1.201 0 0 0-.979-.702.162.162 0 1 1 0-.318 1.522 1.522 0 0 1 1.242.9.167.167 0 0 1-.002.119.164.164 0 0 1-.082.085.152.152 0 0 1-.035.018Zm-5.16-4.344a.15.15 0 0 1-.096-.035.156.156 0 0 1 0-.222c.363-.457.627-.984.774-1.548a.162.162 0 0 1 .018-.068.16.16 0 0 1 .178-.085.164.164 0 0 1 .064.029.171.171 0 0 1 .045.053.16.16 0 0 1 .007.137 4.608 4.608 0 0 1-.834 1.674.154.154 0 0 1-.156.066v-.001Zm-.299-1.542a3.648 3.648 0 0 1-1.674-.756.162.162 0 0 1-.063-.104.165.165 0 0 1 .073-.16.16.16 0 0 1 .177.008c.438.363.967.601 1.53.689a.163.163 0 0 1 .182.075.163.163 0 0 1 .012.136.155.155 0 0 1-.095.097.162.162 0 0 1-.069.01l-.073.005Zm2.759-11.755a.162.162 0 0 1 0-.318.527.527 0 0 0 .438-.192 1.547 1.547 0 0 0 .168-1.2.161.161 0 0 1 .028-.12.16.16 0 0 1 .104-.066.169.169 0 0 1 .186.132 1.8 1.8 0 0 1-.24 1.446.863.863 0 0 1-.684.318Zm5.136 1.495a.16.16 0 0 1-.098-.033.157.157 0 0 1-.058-.087 3.254 3.254 0 0 0-.48-.874l-.12-.18a.165.165 0 0 1-.01-.112.17.17 0 0 1 .065-.09.164.164 0 0 1 .209.022l.12.18c.229.294.406.625.522.98a.16.16 0 0 1-.016.12.16.16 0 0 1-.098.072l-.036.002Z"/>
  <path fill="#fff" d="M164.814 80.437a1.978 1.978 0 0 0-1.679 0 2.785 2.785 0 0 0-2.939.175 3.006 3.006 0 0 1-.792.522c-.714.228-1.122-.875-1.8-.534a.825.825 0 0 0-.192.132 4.218 4.218 0 0 1-.12-.36 5.74 5.74 0 0 1-.324-1.446c-.034-.384.036-.77.204-1.116a2.61 2.61 0 0 0 3.132.402 5.892 5.892 0 0 0 4.104.234 1.27 1.27 0 0 1 .792.756 1.202 1.202 0 0 1-.386 1.235Zm1.596-5.275a.837.837 0 0 1-.552.378 2.213 2.213 0 0 0-2.155-1.2 1.906 1.906 0 0 1-.899 0c-.54-.21-.564-.93-.756-1.47-.307-.87-1.033-1.65-1.837-1.56a1.42 1.42 0 0 1 .054-.378c.11-.285.273-.546.48-.77a5.05 5.05 0 0 1 .859-1.06 1.793 1.793 0 0 0 .702 1.278 3.538 3.538 0 0 0 1.836 2.682 5.74 5.74 0 0 0 1.662.51c.155.112.296.243.42.39a1.06 1.06 0 0 1 .186 1.2Zm3.901-8.527c-.324 1.05 0 2.125-.138 3.186-.138 1.062-1.14 1.915-1.284 3-.023.2-.023.401 0 .6a1.51 1.51 0 0 1-1.404-.948 2.297 2.297 0 0 1-.15-.552c.03-.072.066-.138.102-.21a7.05 7.05 0 0 0 .9-1.944 3.171 3.171 0 0 0-.714-2.4 4.873 4.873 0 0 0-.6-.636 1.126 1.126 0 0 1 .78-.6 1.8 1.8 0 0 1 1.278.433 1.157 1.157 0 0 1 .674-.64 1.162 1.162 0 0 1 .928.057 1.892 1.892 0 0 0-.372.654Zm6.623 3.637c-.012.202-.04.403-.084.6a2.4 2.4 0 0 0-1.374 1.584c-.175.738 0 1.638-.6 2.142-.186.168-.432.264-.6.432-.174.162-.299.37-.36.6-.93.198-1.836-.642-2.094-1.572v-.066c.221-.227.391-.5.498-.798a6.62 6.62 0 0 0 .24-2.55c-.042-1.134-.09-2.275-.126-3.409a4.43 4.43 0 0 0-.09-.725.588.588 0 0 1 .144-.132c.462-.336 1.122-.048 1.548.33a4.245 4.245 0 0 1 1.392 2.358 1.202 1.202 0 0 1 1.074.21 1.241 1.241 0 0 1 .432.996Zm4.05 8.814a1.61 1.61 0 0 1-.276.684 2.145 2.145 0 0 0-2.537-.486 1.242 1.242 0 0 0-1.122-1.2 2.04 2.04 0 0 0-1.633.696 4.48 4.48 0 0 0-.33.414 1.386 1.386 0 0 1-.174-1.504l.047-.09c.219-.035.425-.124.601-.258.401-.288.756-.702 1.242-.762.756-.09 1.289.695 1.973 1.002a1.713 1.713 0 0 0 1.981-.457c.208.632.286 1.3.228 1.962v-.001Zm-2.639 6.714a.713.713 0 0 1-.636.463.944.944 0 0 1-1.103.87 1.48 1.48 0 0 1-.534-.186.76.76 0 0 0-.035-.288c.204.324.774 0 .774-.372a1.348 1.348 0 0 0-.63-.924c-.828-.684-1.938-1.488-3.048-1.566h.096c-.144 0 .414-.834.498-.888.084-.06.177-.106.276-.138.085.19.203.365.348.516a6.684 6.684 0 0 0 3.438 1.4c.14.008.28.008.42 0 .055.105.101.216.137.33.083.254.083.529-.001.784Zm-7.719 2.52c0 .31.03.62.09.923a.762.762 0 0 1-.175.193.673.673 0 0 1-.875 0c-.245-.234-.204-.6-.228-.972.085-.293.149-.591.192-.894.138-.912.144-1.944-.45-2.651a2.536 2.536 0 0 0-.168-.187c.072-.163.171-.314.294-.444a1.47 1.47 0 0 1 1.95.229c-.857.983-.647 2.615-.63 3.803Zm-3.827-4.518a.466.466 0 0 1-.035.258 4.964 4.964 0 0 0-2.694 2.4c-.146.24-.235.512-.257.793a1.202 1.202 0 0 1-.63 0 1.411 1.411 0 0 1-1.05-1.008.809.809 0 0 1-.816-.738 4.17 4.17 0 0 0 .72-.223c1.404-.57 3.426-1.415 3.793-2.777.277.122.507.333.653.6.166.2.275.44.318.695h-.002Z" opacity=".5"/>
  <path fill="#fff" d="M168.324 69.769a7.052 7.052 0 0 1-.9 1.944c-.035.072-.072.137-.102.21a2.23 2.23 0 0 0-.168 1.854c-.444-.048-.906-.096-1.35-.18a5.74 5.74 0 0 1-1.662-.51 3.53 3.53 0 0 1-1.836-2.683 1.796 1.796 0 0 1-.702-1.278 1.628 1.628 0 0 1 .156-.858 1.996 1.996 0 0 1 2.166-.942 1.198 1.198 0 0 1 .868-1.678 1.2 1.2 0 0 1 .71.082c.558.238 1.071.57 1.518.98.219.194.419.406.6.636a3.184 3.184 0 0 1 .702 2.423Zm-1.86 6.863a2.089 2.089 0 0 1-.6.96 3.715 3.715 0 0 1-1.446.875 5.893 5.893 0 0 1-4.104-.234 2.609 2.609 0 0 1-3.132-.403 2.283 2.283 0 0 1-.48-.708 2.577 2.577 0 0 1 1.728-3.366 1.385 1.385 0 0 1 1.356-2.292c.135-.07.281-.115.432-.132.805-.09 1.53.69 1.836 1.56.192.54.216 1.26.756 1.47.296.072.605.072.9 0a2.206 2.206 0 0 1 2.154 1.2c.035.078.067.15.096.228.3.212.594.47.504.842Zm-.594 5.351c.018.202 0 .405-.054.6-.366 1.362-2.4 2.208-3.793 2.778a4.15 4.15 0 0 1-.72.222 4.42 4.42 0 0 1-2.903-.385 2.5 2.5 0 0 1-1.2-1.14 1.371 1.371 0 0 1 .244-1.548 1.215 1.215 0 0 1-.391-.862 1.209 1.209 0 0 1 .356-.877.85.85 0 0 1 .193-.132c.672-.343 1.08.762 1.8.534a3.03 3.03 0 0 0 .792-.522 2.782 2.782 0 0 1 2.939-.175 1.975 1.975 0 0 1 1.679 0l.114.06a1.912 1.912 0 0 1 .944 1.447Zm3.763 5.617c-.043.302-.107.6-.192.894a3 3 0 0 1-.378.816 1.75 1.75 0 0 1-1.524.822 1.124 1.124 0 0 1-.982-.794 1.12 1.12 0 0 1-.044-.442 1.456 1.456 0 0 1-2.16-.894.667.667 0 0 1-.546-.72 1.8 1.8 0 0 1 .258-.792 4.96 4.96 0 0 1 2.694-2.4 2.183 2.183 0 0 1 2.262.695 2.7 2.7 0 0 1 .168.187c.612.678.612 1.71.444 2.628Zm7.175-1.297c0 .385-.57.696-.774.372a.803.803 0 0 0 .035.288c.072.816 0 1.734-.714 2.088-.382.15-.799.185-1.2.102a2.454 2.454 0 0 0-1.2.048.81.81 0 0 0-.522.966 1.014 1.014 0 0 1-1.435-.27 1.746 1.746 0 0 1-.288-.654 4.857 4.857 0 0 1-.09-.924c0-1.2-.204-2.82.636-3.762.063-.075.133-.144.21-.204a2.238 2.238 0 0 1 1.656-.54c1.11.078 2.22.882 3.048 1.566a1.337 1.337 0 0 1 .636.924h.002Zm3.943-3.047a3.507 3.507 0 0 1-2.544 1.415 3.27 3.27 0 0 1-.42 0 6.683 6.683 0 0 1-3.438-1.4 1.798 1.798 0 0 1-.348-.515c-.306-.738.048-1.584.462-2.45a8.75 8.75 0 0 1 .6-1.14c.101-.144.212-.282.33-.413a2.043 2.043 0 0 1 1.632-.696 1.244 1.244 0 0 1 1.122 1.2 2.148 2.148 0 0 1 2.538.486c.115.115.214.244.294.385a2.913 2.913 0 0 1-.228 3.128Zm-.019-6.15a1.71 1.71 0 0 1-1.98.456c-.684-.306-1.2-1.091-1.974-1.001-.486.06-.84.474-1.242.761a1.33 1.33 0 0 1-.6.258c-.875.132-1.326-1.08-1.056-1.962.062-.23.186-.437.36-.6.192-.168.438-.264.6-.432.558-.504.414-1.404.6-2.142a2.398 2.398 0 0 1 1.374-1.583c.283-.13.59-.195.9-.193a2.4 2.4 0 0 1 2.244 1.8c.044.529.122 1.054.234 1.572.187.51.6.907.792 1.416a1.726 1.726 0 0 1-.252 1.65Zm-8.436-3.906a2.2 2.2 0 0 1-.498.798c-.984 1.002-2.736.9-2.916-.558a2.509 2.509 0 0 1 0-.6c.144-1.084 1.104-1.884 1.284-3 .18-1.116-.186-2.136.138-3.186.08-.238.206-.458.372-.647a.95.95 0 0 1 .972-.349 1.086 1.086 0 0 1 .664.858c.051.24.081.482.09.726.035 1.134.084 2.274.126 3.408a6.6 6.6 0 0 1-.234 2.55h.002Zm1.65-4.968-.131 2.79c0 .229 0 .522.24.6a.541.541 0 0 0 .426-.137l2.328-1.645c.349-.185.627-.48.792-.84a1.205 1.205 0 0 0-.402-1.2 3.334 3.334 0 0 0-1.2-.6 3.4 3.4 0 0 0-1.302-.27 1.275 1.275 0 0 0-1.11.6.794.794 0 0 0 .142.916.8.8 0 0 0 .272.182l-.055-.396Zm3.847 1.848c.21-.281.654-.095.942.115.288.21.726.408.936.126a.469.469 0 0 0-.09-.6 1.288 1.288 0 0 0-.564-.282.475.475 0 0 0-.318-.672.78.78 0 0 0-.75.348 2.29 2.29 0 0 0-.3.816l.144.15Z" opacity=".4"/>
  <path fill="#263238" d="M178.098 70.572a2.147 2.147 0 0 1-1.644 1.722c-.829.175-1.645-.6-2.1-1.326a.793.793 0 0 1-1.002-.498 2.22 2.22 0 0 1 0-1.236c.054-.306.078-.726.138-1.032a1.523 1.523 0 0 1-.031-1.529 1.521 1.521 0 0 1 1.315-.78c-.03 0-.222.282-.252.276-.288-.102-.282-.558-.048-.75a1.111 1.111 0 0 1 .875-.138c.297.066.604.066.9 0 .294-.09 1.344-.684 1.2-.954a4.524 4.524 0 0 0 1.134 1.645c.294.174.54.42.714.714a.698.698 0 0 1-.216.9 1.72 1.72 0 0 1 .505 2.25c-.372.772-.744 1.12-1.488.736Z"/>
  <path fill="#fff" d="M169.963 80.814a1.23 1.23 0 1 0 0-2.46 1.23 1.23 0 0 0 0 2.46Z" opacity=".2"/>
  <path fill="#000" d="M179.27 44.226a20.592 20.592 0 0 1-9.889 3.894c-.546 0-.288-3.066-.114-4.668.072 1.47 1.098 3.18 2.4 3.492 1.602.384 3.282-.216 4.724-1.02.965-.535 1.901-1.158 2.879-1.698Z" opacity=".2"/>
  <path fill="#263238" d="M180.427 64.83a.131.131 0 0 1-.078 0 2.853 2.853 0 0 1-1.344-2.436c.01-.568-.01-1.137-.06-1.704a11.436 11.436 0 0 1 .06-2.934 7.8 7.8 0 0 1 3.276-4.692 23.022 23.022 0 0 1 5.178-2.538.159.159 0 0 1 .211.087.164.164 0 0 1-.042.175.162.162 0 0 1-.055.032 23.025 23.025 0 0 0-5.106 2.502 7.485 7.485 0 0 0-3.149 4.494 11.376 11.376 0 0 0-.054 2.856c.035.564.072 1.152.06 1.734a2.524 2.524 0 0 0 1.2 2.148.163.163 0 0 1 .071.182.163.163 0 0 1-.155.118l-.013-.023Z"/>
  <path fill="#263238" d="M180.535 55.062a.15.15 0 0 1-.12-.054c-1.585-1.866-5.401-2.729-7.885-2.345l-.93.137c-2.4.408-4.933.829-7.044-.366a10.226 10.226 0 0 1-2.4-2.16c-.372-.407-.756-.834-1.164-1.2a.163.163 0 0 1 0-.228.162.162 0 0 1 .111-.046.158.158 0 0 1 .111.046c.42.385.81.81 1.2 1.2.669.82 1.463 1.528 2.353 2.1 2.01 1.133 4.463.725 6.833.33l.93-.157c2.593-.408 6.498.486 8.172 2.454a.153.153 0 0 1 .03.173.155.155 0 0 1-.15.091l-.047.025Z"/>
  <path fill="#263238" d="M159.06 70.284a.162.162 0 0 1-.156-.114 6.441 6.441 0 0 1 .144-3.779l.06-.21c.708-2.621 1.59-5.88 3.84-8.015.33-.313.726-.636 1.14-.972 1.392-1.14 2.97-2.4 3.18-4.159a.16.16 0 0 1 .175-.138.17.17 0 0 1 .108.062.174.174 0 0 1 .036.119c-.228 1.854-1.926 3.246-3.294 4.362-.414.336-.805.654-1.122.954-2.184 2.082-3.054 5.292-3.756 7.866l-.061.216a6.248 6.248 0 0 0-.144 3.6.162.162 0 0 1-.108.198l-.042.01Z"/>
  <path fill="#263238" d="M160.092 68.346a1.305 1.305 0 0 1-1.172-.899 1.293 1.293 0 0 1-.058-.517.167.167 0 0 1 .179-.138.154.154 0 0 1 .138.18.992.992 0 0 0 .237.718.987.987 0 0 0 .675.338.153.153 0 0 1 .115.046.148.148 0 0 1 .041.116.156.156 0 0 1-.155.156Zm1.674-2.027a3.18 3.18 0 0 1-2.304-1.2.17.17 0 0 1-.029-.057.162.162 0 0 1 .017-.124.166.166 0 0 1 .102-.074.159.159 0 0 1 .168.069c.486.672 1.692 1.266 2.449 1.001a2.84 2.84 0 0 0 1.295-1.35l.15-.24c.363-.66.92-1.192 1.596-1.524a1.8 1.8 0 0 1 2.154.432.16.16 0 0 1-.033.218.16.16 0 0 1-.219-.026 1.543 1.543 0 0 0-1.8-.335 3.387 3.387 0 0 0-1.452 1.41l-.15.234a3.07 3.07 0 0 1-1.458 1.482 1.57 1.57 0 0 1-.486.084Z"/>
  <path fill="#263238" d="M166.368 64.643a.162.162 0 0 1-.105-.066.165.165 0 0 1-.027-.12c.054-.288-.175-.516-.6-.936a10.307 10.307 0 0 1-.444-.444.161.161 0 0 1 .128-.248.165.165 0 0 1 .106.032c.15.162.3.3.432.433.438.42.78.75.702 1.2a.168.168 0 0 1-.018.066.158.158 0 0 1-.106.082.159.159 0 0 1-.068.002Zm-.408-8.741a.16.16 0 0 1-.11-.05.159.159 0 0 1 0-.222.156.156 0 0 1 .11-.046 15.283 15.283 0 0 0 6.15-1.638c1.494-.84 3.45-1.74 5.31-1.242a.162.162 0 0 1 .114.198.152.152 0 0 1-.136.115.155.155 0 0 1-.062-.007c-1.74-.462-3.534.354-5.07 1.2a15.703 15.703 0 0 1-6.301 1.674l-.005.018Z"/>
  <path fill="#263238" d="M180.535 55.061h-.066c-.996-.444-2.634-.522-4.199-.6-1.482-.066-2.886-.137-3.6-.516a.166.166 0 0 1-.078-.093.171.171 0 0 1 .006-.122.163.163 0 0 1 .216-.067c.66.349 2.022.414 3.468.48 1.614.078 3.276.156 4.332.6a.162.162 0 0 1 .078.21.156.156 0 0 1-.156.108h-.001Zm-3.24 10.093h-.061a.167.167 0 0 1-.089-.21c.954-2.478 1.992-2.748 2.04-2.76a.161.161 0 0 1 .192.12.168.168 0 0 1-.12.192s-.936.27-1.8 2.562a.158.158 0 0 1-.162.096Zm-8.814-9.587a.15.15 0 0 1-.132-.072.153.153 0 0 1-.003-.179.156.156 0 0 1 .045-.044 2.16 2.16 0 0 0 .39-.462c.133-.204.295-.387.48-.546a.157.157 0 0 1 .122-.029.16.16 0 0 1 .105.068.16.16 0 0 1 .024.059.157.157 0 0 1-.071.166 2.018 2.018 0 0 0-.396.468 2.265 2.265 0 0 1-.474.54.182.182 0 0 1-.09.03Zm-6.03 8.783a2.841 2.841 0 0 1-.498-.035c-.954-.204-1.8-1.356-1.842-1.404a.155.155 0 0 1-.034-.171.17.17 0 0 1 .034-.051.165.165 0 0 1 .119-.028.165.165 0 0 1 .104.063 3.73 3.73 0 0 0 1.661 1.278c.534.114 1.878-.066 2.094-.336a.157.157 0 0 1 .222-.03.167.167 0 0 1 0 .228c-.204.336-1.182.486-1.86.486Zm-1.915-13.145a.165.165 0 0 1-.102-.038.164.164 0 0 1-.054-.094.167.167 0 0 1 .132-.186l.234-.035a3.603 3.603 0 0 0 1.662-.522.163.163 0 0 1 .21.044.163.163 0 0 1-.018.214 4.011 4.011 0 0 1-1.8.6l-.228.035-.036-.018Zm14.534 1.451h-.035c-1.95-.486-4.728-.936-6.882-.294-.788.2-1.613.2-2.4 0a5.755 5.755 0 0 0-1.44-.138.157.157 0 0 1-.154-.09.142.142 0 0 1-.014-.06.16.16 0 0 1 .039-.112.16.16 0 0 1 .105-.056c.51-.017 1.019.03 1.518.138a4.514 4.514 0 0 0 2.28 0c2.22-.66 5.058-.21 7.05.288a.16.16 0 0 1 .098.072.16.16 0 0 1 .016.12.17.17 0 0 1-.065.1.17.17 0 0 1-.116.032Zm2.307.36a.155.155 0 0 1-.092-.03.162.162 0 0 1-.058-.078.17.17 0 0 1 .108-.204 26.53 26.53 0 0 1 3.852-.6 28.692 28.692 0 0 0 3.81-.6.163.163 0 0 1 .124.012.154.154 0 0 1 .077.097.15.15 0 0 1-.016.124.163.163 0 0 1-.101.073c-1.27.288-2.559.488-3.858.6a26.243 26.243 0 0 0-3.798.6l-.048.006Zm-19.578 17.555a.152.152 0 0 1-.102-.066.163.163 0 0 1-.024-.12 8.489 8.489 0 0 1 1.11-2.592.157.157 0 0 1 .223-.035.165.165 0 0 1 .066.102.167.167 0 0 1-.024.12 8.086 8.086 0 0 0-1.062 2.466.162.162 0 0 1-.187.125Zm2.611-1.109a.162.162 0 0 1-.114-.048 1.145 1.145 0 0 1-.36-1.267.171.171 0 0 1 .042-.072 2.424 2.424 0 0 1 1.92-.664.162.162 0 1 1-.035.318 2.181 2.181 0 0 0-1.627.54.838.838 0 0 0 .294.93.154.154 0 0 1-.12.263Z"/>
  <path fill="#263238" d="M171.296 55.8a6.596 6.596 0 0 1-2.239-.396.165.165 0 0 1-.066-.026.166.166 0 0 1-.06-.188.16.16 0 0 1 .038-.06.162.162 0 0 1 .196-.026 6.177 6.177 0 0 0 2.802.336.163.163 0 0 1 .143.26.16.16 0 0 1-.106.06 6.983 6.983 0 0 1-.708.04Zm2.297 23.449c-.11 0-.22-.02-.324-.054l-.108-.03v-.377h.318v.138c.516.078 1.014-.42 1.164-.6l.24-.282c.259-.37.602-.672 1.002-.882a2.88 2.88 0 0 1 2.094.175l.402.15c.405.177.83.304 1.266.378.786.072 1.35-.774 1.56-1.14a6.52 6.52 0 0 0 .132-6.036 11.395 11.395 0 0 0-.455-.786 5.182 5.182 0 0 1-.87-1.962 2.987 2.987 0 0 1 .18-1.315 3.44 3.44 0 0 0 .186-.99 12.01 12.01 0 0 0-.6-2.886c-.726-2.544-1.626-5.7.642-7.968l.228.222c-2.136 2.136-1.302 5.07-.564 7.656.324.972.526 1.98.6 3a3.82 3.82 0 0 1-.204 1.085c-.15.381-.208.792-.168 1.2a4.89 4.89 0 0 0 .822 1.836c.162.264.336.54.468.81a6.826 6.826 0 0 1-.138 6.336c-.24.42-.894 1.386-1.865 1.302a5.841 5.841 0 0 1-1.351-.402l-.396-.144a2.602 2.602 0 0 0-1.859-.18 2.49 2.49 0 0 0-.882.792l-.252.288a1.9 1.9 0 0 1-1.268.666Z"/>
  <path fill="#263238" d="M180.283 63.546a1.516 1.516 0 0 0-.042 1.542c.09.122.193.234.306.336a1.116 1.116 0 0 0 .258-.936 1.321 1.321 0 0 0-.522-.942Zm-1.303-5.208a1.516 1.516 0 0 0-.042 1.542c.091.121.194.234.307.335a1.111 1.111 0 0 0 .252-.942 1.275 1.275 0 0 0-.157-.524 1.274 1.274 0 0 0-.36-.412Zm.186 2.965a.8.8 0 0 0-.354 1.02c.062.11.134.215.216.312.312-.078.372-.306.438-.552a.859.859 0 0 0-.3-.78Zm.6-5.432a.792.792 0 0 0-.648.864c.028.123.066.244.114.36a.676.676 0 0 0 .6-.39.887.887 0 0 0-.066-.834Zm6.126-4.577a.79.79 0 0 0-1.074.109 2.115 2.115 0 0 0-.192.33.6.6 0 0 0 .69.162.88.88 0 0 0 .576-.6Zm-3.63 1.943a.798.798 0 0 0-.965.48c-.033.124-.053.25-.061.378.276.162.48.042.702-.09a.877.877 0 0 0 .324-.768Zm-2.712.728a.796.796 0 0 0-.834-.69 2.03 2.03 0 0 0-.366.095c-.035.324.156.463.36.6a.89.89 0 0 0 .84-.005Zm.666-1.512a.792.792 0 0 0-1.062-.192c-.098.081-.19.17-.276.264.132.3.36.324.6.348a.862.862 0 0 0 .738-.42Zm2.717-.301a.792.792 0 0 0-1.062-.192c-.1.079-.193.167-.276.264.126.294.36.319.6.349a.902.902 0 0 0 .738-.42Zm-9.671 1.734a.792.792 0 0 0-1.062-.192c-.099.08-.191.168-.276.264.126.294.36.318.6.348a.902.902 0 0 0 .738-.42Zm-8.041 2.472a.798.798 0 0 0-.948.522 2.4 2.4 0 0 0-.048.377.601.601 0 0 0 .696-.114.887.887 0 0 0 .3-.785Zm-2.938 2.855a.794.794 0 0 0-.835.684 3.09 3.09 0 0 0 0 .385c.313.09.481-.066.665-.245a.868.868 0 0 0 .168-.822l.002-.002Zm-3.181 7.903a.796.796 0 0 0-.492.96c.051.118.109.232.175.342.324-.042.413-.252.516-.492a.904.904 0 0 0-.198-.81h-.001Zm8.105-13.212a.792.792 0 0 0-.738.792c.011.126.035.251.072.372a.567.567 0 0 0 .6-.324.903.903 0 0 0 .066-.84Zm-6.508 7.896a.798.798 0 0 0-.6.894c.029.124.071.245.126.36.318 0 .438-.198.6-.42a.908.908 0 0 0-.126-.834Zm-.93 2.778a.798.798 0 0 0-.6.894c.029.124.071.245.125.36.319 0 .439-.198.57-.42a.91.91 0 0 0 .056-.428.91.91 0 0 0-.151-.406Zm3.108 1.237a.806.806 0 0 0-1.08.09 1.76 1.76 0 0 0-.193.33c.199.251.433.215.684.174a.902.902 0 0 0 .589-.594Zm2.004-2.521a.799.799 0 0 0-.984.45 2.353 2.353 0 0 0-.072.372.6.6 0 0 0 .702-.066.887.887 0 0 0 .354-.756Zm2.519.192a.795.795 0 0 0-.648-.864 2.006 2.006 0 0 0-.378 0c-.108.3.042.48.21.672a.895.895 0 0 0 .816.192Zm3.347-10.638a.799.799 0 0 0-1.08-.06c-.088.092-.168.19-.24.294.162.276.396.276.654.27a.88.88 0 0 0 .666-.504Zm5.652-.15a.79.79 0 0 0-.966-.48 2.335 2.335 0 0 0-.342.175c.042.324.258.413.492.51a.895.895 0 0 0 .816-.205Zm-3.822-.63a.789.789 0 0 0-.98-.469 2.286 2.286 0 0 0-.342.175c.042.324.258.414.498.51a.882.882 0 0 0 .822-.215l.002-.002Zm-3.809.067a.806.806 0 0 0-1.08-.067c-.09.093-.17.193-.24.3.162.276.396.276.648.27a.9.9 0 0 0 .672-.503Zm-3.66.485a.788.788 0 0 0-.749-.78 1.727 1.727 0 0 0-.377.054c-.067.312.108.468.293.642a.905.905 0 0 0 .835.084h-.002ZM163.009 51a.795.795 0 0 0-.547-.93 1.917 1.917 0 0 0-.377-.043.596.596 0 0 0 .131.696.883.883 0 0 0 .793.276Zm13.936 3.306a.796.796 0 0 0-1.032-.324 2.54 2.54 0 0 0-.306.229c.09.312.318.366.57.426a.901.901 0 0 0 .768-.33Z"/>
  <path fill="#FF4572" d="M171.539 41.34a25.655 25.655 0 0 1 1.074 51.288h-2.25a25.41 25.41 0 0 1-8.814-1.992l-.438-.192a25.673 25.673 0 0 1 0-46.902 25.495 25.495 0 0 1 8.184-2.1 23.103 23.103 0 0 1 2.244-.102m0-.75c-.798 0-1.572.035-2.316.103a26.4 26.4 0 0 0-8.4 50.435 26.213 26.213 0 0 0 9.522 2.25h2.34a26.252 26.252 0 0 0 12.114-3.534 26.517 26.517 0 0 0 13.152-22.848 26.4 26.4 0 0 0-7.729-18.678 26.376 26.376 0 0 0-18.678-7.728h-.005Zm-32.579 73.175a1.578 1.578 0 1 0 0-3.156 1.578 1.578 0 0 0 0 3.156Zm-16.745 20.161v80.01h-1.956l-1.74-76.35h-2.304v-3.66h6Z"/>
  <path fill="#FF4572" d="M120.475 213.93h-1.86l-2.4-79.998h2.46l1.8 79.998Z"/>
  <path fill="#fff" d="M122.215 133.926v80.01h-1.956l-1.74-76.35h-2.304v-3.66h6Z" opacity=".3"/>
  <path fill="#FF4572" d="M239.556 213.93h-1.865l-2.4-79.998h2.466l1.799 79.998Z"/>
  <path fill="#fff" d="M239.556 213.93h-1.865l-2.4-79.998h2.466l1.799 79.998Z" opacity=".3"/>
  <path fill="#FF4572" d="M209.49 133.932v79.998h1.974l2.322-76.344h23.808l1.74 76.344h1.956v-79.998h-31.8Z"/>
  <path fill="#fff" d="M209.49 133.932v79.998h1.974l2.322-76.344h23.808l1.74 76.344h1.956v-79.998h-31.8Z" opacity=".5"/>
  <path fill="#FF4572" d="M209.491 213.93h-1.866l-.6-79.998h2.466v79.998Z"/>
  <path fill="#fff" d="M209.491 213.93h-1.866l-.6-79.998h2.466v79.998Z" opacity=".3"/>
  <path fill="#FF4572" d="M116.087 133.926v3.66H94.583l-2.322 76.35h-1.974v-80.01h25.8Z"/>
  <path fill="#fff" d="M116.087 133.926v3.66H94.583l-2.322 76.35h-1.974v-80.01h25.8Z" opacity=".3"/>
  <path fill="#FF4572" d="M90.287 213.93h-1.86l-.6-79.998h2.46v79.998Zm117.667-84.6H84.564v4.602h123.39v-4.602Z"/>
  <path fill="#fff" d="M207.954 129.33H84.564v4.602h123.39v-4.602Z" opacity=".5"/>
  <path fill="#FF4572" d="M244.555 129.33h-39.468v4.602h39.468v-4.602Z"/>
  <path fill="#fff" d="M244.555 129.33h-39.468v4.602h39.468v-4.602Z" opacity=".3"/>
  <path fill="#263238" d="M155.136 128.61c.003.03.003.06 0 .09a.636.636 0 0 1-.052.247.65.65 0 0 1-.602.395l-16.644-.204a.647.647 0 0 1-.636-.6.198.198 0 0 1 0-.084.648.648 0 0 1 .123-.37.647.647 0 0 1 .315-.23.59.59 0 0 1 .204-.03l16.65.198a.638.638 0 0 1 .564.348c.04.075.067.156.078.24Z"/>
  <path fill="#263238" d="m153.882 129.342 29.587-.204a.646.646 0 0 0 .642-.654.655.655 0 0 0-.406-.595.64.64 0 0 0-.248-.047l-29.581.204a.647.647 0 0 0-.647.654.635.635 0 0 0 .194.456.635.635 0 0 0 .459.186Z"/>
  <path fill="#000" d="m153.882 129.342 29.587-.204a.646.646 0 0 0 .642-.654.655.655 0 0 0-.406-.595.64.64 0 0 0-.248-.047l-29.581.204a.647.647 0 0 0-.647.654.635.635 0 0 0 .194.456.635.635 0 0 0 .459.186Z" opacity=".5"/>
  <path fill="#263238" d="m185.634 109.416-1.332 16.344a2.314 2.314 0 0 1-2.159 2.088h-.078l-27.246.186h-.018a1.864 1.864 0 0 1-1.866-2.058l1.332-16.344a2.303 2.303 0 0 1 2.239-2.082h.414l26.832-.192a1.87 1.87 0 0 1 1.884 2.058h-.002Z"/>
  <path fill="#263238" d="m184.68 107.279-27.246.193c-.18.001-.36.028-.533.078a2.305 2.305 0 0 0-1.704 2.004l-1.332 16.35a1.86 1.86 0 0 0 .488 1.456 1.861 1.861 0 0 0 1.414.602l26.832-.193h.402a2.3 2.3 0 0 0 2.239-2.082l1.362-16.35a1.86 1.86 0 0 0-1.143-1.914 1.867 1.867 0 0 0-.777-.144h-.002Z"/>
  <path fill="#fff" d="m184.68 107.279-27.246.193c-.18.001-.36.028-.533.078a2.305 2.305 0 0 0-1.704 2.004l-1.332 16.35a1.86 1.86 0 0 0 .488 1.456 1.861 1.861 0 0 0 1.414.602l26.832-.193h.402a2.3 2.3 0 0 0 2.239-2.082l1.362-16.35a1.86 1.86 0 0 0-1.143-1.914 1.867 1.867 0 0 0-.777-.144h-.002Z" opacity=".2"/>
  <path fill="#FF4572" d="M67.236 105.516c-.408-.048-12.348 1.122-13.128 13.924l2.046 8.856a41.334 41.334 0 0 1 29.833.408l.144.054-.829-10.122s-3.04-11.363-18.066-13.12Z"/>
  <path fill="#263238" d="m92.304 167.297-2.4.204a412.206 412.206 0 0 0-5.154-45.42 18.675 18.675 0 0 0-7.926-12 12.455 12.455 0 0 0-2.814-1.518 15.462 15.462 0 0 0-5.796-1.254c-.803.002-1.605.058-2.4.168-1.811.28-3.54.951-5.064 1.968a24.646 24.646 0 0 0-2.046 1.752c-.34.358-.654.739-.942 1.14a13.243 13.243 0 0 0-2.046 10.494 376.414 376.414 0 0 1 5.286 41.568l-2.4.162a373.92 373.92 0 0 0-5.262-41.249 15.648 15.648 0 0 1 2.46-12.426 14.519 14.519 0 0 1 10.758-6.06c9.366-.636 19.11 6.984 20.55 16.752a416.265 416.265 0 0 1 5.196 45.72v-.001Z"/>
  <path fill="#fff" d="m92.304 167.297-2.4.204a412.206 412.206 0 0 0-5.154-45.42 18.675 18.675 0 0 0-7.926-12 12.455 12.455 0 0 0-2.814-1.518 15.462 15.462 0 0 0-5.796-1.254c-.803.002-1.605.058-2.4.168-1.811.28-3.54.951-5.064 1.968a24.646 24.646 0 0 0-2.046 1.752c-.34.358-.654.739-.942 1.14a13.243 13.243 0 0 0-2.046 10.494 376.414 376.414 0 0 1 5.286 41.568l-2.4.162a373.92 373.92 0 0 0-5.262-41.249 15.648 15.648 0 0 1 2.46-12.426 14.519 14.519 0 0 1 10.758-6.06c9.366-.636 19.11 6.984 20.55 16.752a416.265 416.265 0 0 1 5.196 45.72v-.001Z" opacity=".3"/>
  <path fill="#FF4572" d="M62.96 159.99h46.35a4.398 4.398 0 0 1 4.398 4.398v1.465H58.556v-1.452a4.398 4.398 0 0 1 4.404-4.409v-.002Z"/>
  <path fill="#263238" d="M60.425 214.026H57.49l2.4-48.174h3.726l-3.192 48.174Z"/>
  <path fill="#fff" d="M60.425 214.026H57.49l2.4-48.174h3.726l-3.192 48.174Z" opacity=".3"/>
  <path fill="#263238" d="M82.884 214.026h-2.928l1.596-48.174h3.732l-2.4 48.174Z"/>
  <path fill="#fff" d="M82.884 214.026h-2.928l1.596-48.174h3.732l-2.4 48.174Z" opacity=".3"/>
  <path fill="#263238" d="M93.036 214.026h-2.934l-2.4-48.174h3.732l1.602 48.174Z"/>
  <path fill="#fff" d="M93.036 214.026h-2.934l-2.4-48.174h3.732l1.602 48.174Z" opacity=".3"/>
  <path fill="#263238" d="M117.653 214.026h-2.928l-3.198-48.174h3.732l2.394 48.174Z"/>
  <path fill="#fff" d="M117.653 214.026h-2.928l-3.198-48.174h3.732l2.394 48.174Z" opacity=".3"/>
  <path fill="#FF4572" d="M116.111 163.722H83.339v4.26h32.772v-4.26Z"/>
  <path fill="#fff" d="M116.111 163.722H83.339v4.26h32.772v-4.26Z" opacity=".7"/>
  <path fill="#FF4572" d="M83.34 163.722H56.156v4.26H83.34v-4.26Z"/>
  <path fill="#fff" d="M83.34 163.722H56.156v4.26H83.34v-4.26Z" opacity=".4"/>
  <path fill="#FF8B7B" d="m144.504 210.774 5.275-.588 1.523-12.535-7.134.87.336 12.253Z"/>
  <path fill="#263238" d="m150.206 208.506-6.174-.498a.397.397 0 0 0-.455.318v.035l-.696 4.86a.987.987 0 0 0 .888 1.056c2.148.132 3.054.09 5.778.114 1.679 0 5.682 0 7.98-.245s1.968-2.532.972-2.628c-2.4-.204-5.94-1.242-7.392-2.586-.243-.24-.56-.39-.9-.426h-.001Z"/>
  <path fill="#000" d="m144.168 198.527 7.134-.874-.779 6.414-6.199-.042-.156-5.498Z" opacity=".2"/>
  <path fill="#263238" d="M110.315 137.904s41.838.822 43.518 16.542a295.446 295.446 0 0 1-2.243 43.968l-7.802.984s-4.17-27.359-2.634-40.56c-11.4-2.052-43.062 1.35-47.34-7.542-3.504-7.254-2.46-11.55-2.46-11.55l18.961-1.842Z"/>
  <path fill="#fff" d="M110.315 137.904s41.838.822 43.518 16.542a295.446 295.446 0 0 1-2.243 43.968l-7.802.984s-4.17-27.359-2.634-40.56c-11.4-2.052-43.062 1.35-47.34-7.542-3.504-7.254-2.46-11.55-2.46-11.55l18.961-1.842Z" opacity=".6"/>
  <path fill="#FF4572" d="M153.132 209.4a.725.725 0 0 0 .216-.684.478.478 0 0 0-.276-.384c-.654-.33-2.286.6-2.472.726a.13.13 0 0 0-.06.078.122.122 0 0 0 .01.095.125.125 0 0 0 .074.061c.47.16.957.267 1.452.318a1.53 1.53 0 0 0 1.056-.21Zm-.156-.846a.228.228 0 0 1 .114.204.455.455 0 0 1-.126.444c-.276.234-1.002.21-1.968-.066.665-.336 1.614-.732 2.004-.57l-.024-.012Z"/>
  <path fill="#FF4572" d="M150.739 209.286c.6-.288 1.488-1.362 1.41-1.98a.49.49 0 0 0-.432-.414.67.67 0 0 0-.6.144c-.6.492-.6 2.082-.6 2.148a.129.129 0 0 0 .066.108h.054l.102-.006Zm.888-2.148c.186.035.222.126.234.204.054.402-.558 1.2-1.074 1.59.03-.522.144-1.422.498-1.715a.37.37 0 0 1 .288-.089s.048.024.054.011v-.001Z"/>
  <path fill="#000" d="M142.201 187.2c1.692-7.067 4.134-30 2.952-34.2-1.512-5.4-21.636-8.478-21.636-8.478s7.662 3.348 13.068 13.8a45.45 45.45 0 0 1 4.356 13.278c.662 3.904.957 7.861.882 11.82l.378 3.78Z" opacity=".3"/>
  <path fill="#FF8B7B" d="m131.801 209.55 5.346.162 1.656-12.522-7.59-.318.588 12.678Z"/>
  <path fill="#263238" d="m137.339 208.128-6.186-.03a.393.393 0 0 0-.283.101.392.392 0 0 0-.131.271l-.33 4.895a.98.98 0 0 0 .966.985c2.154-.054 3.186-.144 5.91-.156 1.674 0 4.968.168 7.26-.192s1.872-2.599.875-2.659c-2.4-.126-5.58-1.68-7.134-2.911a1.529 1.529 0 0 0-.947-.304Z"/>
  <path fill="#FF4572" d="M140.328 208.8a.688.688 0 0 0 .162-.696.503.503 0 0 0-.299-.366c-.665-.282-2.232.798-2.4.918a.127.127 0 0 0-.05.055.125.125 0 0 0-.008.074.118.118 0 0 0 .034.065.12.12 0 0 0 .066.034 6.7 6.7 0 0 0 1.464.204c.368.039.737-.064 1.032-.288h-.001Zm-.228-.816a.235.235 0 0 1 .145.18.465.465 0 0 1-.096.455c-.234.258-.985.282-1.968.084.642-.402 1.56-.858 1.92-.714l-.001-.005Z"/>
  <path fill="#FF4572" d="M137.953 208.896c.546-.33 1.374-1.5 1.248-2.076a.483.483 0 0 0-.463-.39.64.64 0 0 0-.57.18c-.563.534-.443 2.118-.438 2.184a.111.111 0 0 0 .067.102h.053a.2.2 0 0 0 .103 0Zm.726-2.239c.186 0 .24.114.24.192.09.39-.469 1.26-.949 1.662 0-.51.035-1.416.372-1.734a.387.387 0 0 1 .126-.086.388.388 0 0 1 .15-.028l.061-.006Z"/>
  <path fill="#000" d="m130.523 196.65 8.731-.84-1.404 8.55-6.289.06-1.038-7.77Z" opacity=".2"/>
  <path fill="#263238" d="M102.085 138.6s40.956 5.922 40.674 17.922c1.2 14.502-3.3 44.782-3.3 44.782l-9.324.108s-3.162-22.625-2.67-40.386c-10.2.997-39.03.684-40.452-1.44-6.042-6.24-.875-19.404-.875-19.404l15.947-1.582Z"/>
  <path fill="#fff" d="M102.085 138.6s40.956 5.922 40.674 17.922c1.2 14.502-3.3 44.782-3.3 44.782l-9.324.108s-3.162-22.625-2.67-40.386c-10.2.997-39.03.684-40.452-1.44-6.042-6.24-.875-19.404-.875-19.404l15.947-1.582Z" opacity=".6"/>
  <path fill="#263238" d="m129.33 202.24 10.481-.09 1.002-4.974-12.047.084.564 4.98Z"/>
  <path fill="#fff" d="m129.33 202.24 10.481-.09 1.002-4.974-12.047.084.564 4.98Z" opacity=".7"/>
  <path fill="#FF8B7B" d="M106.799 101.867c.168.954.33 1.8.528 2.652l.6 2.574c.444 1.692.96 3.378 1.542 5.094a41.237 41.237 0 0 0 4.8 10.05 18.694 18.694 0 0 0 2.034 2.449 11.974 11.974 0 0 0 2.844 2.148 12.954 12.954 0 0 0 6.552 1.5c1.998-.072 16.272-4.062 16.723-4.368l2.22-3.054s-7.837.114-8.604.192c-1.386.162-8.664.72-10.044.516a6.829 6.829 0 0 1-3.072-1.2 6.534 6.534 0 0 1-1.062-1.014 14.195 14.195 0 0 1-1.068-1.53 26.5 26.5 0 0 1-1.896-3.924 45.443 45.443 0 0 1-1.554-4.398 132.976 132.976 0 0 1-1.308-4.602l-.6-2.334c-.18-.77-.378-1.591-.522-2.262l-8.113 1.511Z"/>
  <path fill="#000" d="M111.841 105.894c-.991-.732-3.222 3.204-4.362 7.896.6 1.674 1.284 3.282 1.956 4.8l7.524-2.334c-1.057-4.494-2.893-8.718-5.118-10.362Z" opacity=".2"/>
  <path fill="#FF8B7B" d="m146.641 121.199 4.198 1.548-4.198 1.926s-4.728 0-5.31-1.518l.9-1.008c.334-.355.73-.646 1.17-.858a4.118 4.118 0 0 1 3.24-.09Z"/>
  <path fill="#FF8B7B" d="m151.8 124.758-1.962 1.602a.643.643 0 0 1-.708.06l-3.048-1.746 4.733-1.914 1.044 1.08a.588.588 0 0 1 .184.473.587.587 0 0 1-.244.445h.001Z"/>
  <path fill="#FF4572" d="M115.955 98.358a35.831 35.831 0 0 1-2.784 14.701c1.092 2.099 1.084 4.476 1.752 6.744.668 2.267 1.469 4.566 2.939 6.425 1.469 1.86 3.72 3.246 6.084 3.121a14.356 14.356 0 0 1-.228-4.668 5.513 5.513 0 0 1 2.352-4.199 17.7 17.7 0 0 1-3.264-3s-2.61-11.148-4.458-16.632c-.389-1.166-1.169-2.354-2.393-2.492Z"/>
  <path fill="#fff" d="M115.955 98.358a35.831 35.831 0 0 1-2.784 14.701c1.092 2.099 1.084 4.476 1.752 6.744.668 2.267 1.469 4.566 2.939 6.425 1.469 1.86 3.72 3.246 6.084 3.121a14.356 14.356 0 0 1-.228-4.668 5.513 5.513 0 0 1 2.352-4.199 17.7 17.7 0 0 1-3.264-3s-2.61-11.148-4.458-16.632c-.389-1.166-1.169-2.354-2.393-2.492Z" opacity=".8"/>
  <path fill="#263238" d="m107.057 94.386-6.258-1.128-7.896.396a5.478 5.478 0 0 0-5.076 4.29c-1.05 4.728-1.8 11.454-2.24 17.262-.522 6.522-.156 16.198.57 24.96l26.4-2.202c1.105-22.921 3.108-29.97 3.546-36.036a5.457 5.457 0 0 0-3.6-5.538l-5.446-2.004Z"/>
  <path fill="#FF4572" d="M95.64 93.474a13.8 13.8 0 0 1 17.4 2.244c-5.682-.96-11.61-1.998-17.4-2.244Z"/>
  <path fill="#fff" d="M95.64 93.474a13.8 13.8 0 0 1 17.4 2.244c-5.682-.96-11.61-1.998-17.4-2.244Z" opacity=".7"/>
  <path fill="#000" d="M90.439 95.874c5.28-.726 4.572 11.172 1.866 19.8-.786 2.496-3.732 1.332-4.716.636-3.223-2.31-3.797-16.877 2.85-20.436Z" opacity=".3"/>
  <path fill="#FF4572" d="M110.225 93.535c3.798 5.1 4.662 20.802 1.2 44.496 0 0 12.875-.126 15.654 3.24 2.3-.353 4.627-.508 6.954-.463-3.474-3.528-12.84-4.974-17.79-5.105 1.8-14.844 3.438-23.352 1.8-34.578-.444-3.162-4.374-5.724-7.818-7.59Z"/>
  <path fill="#fff" d="M110.225 93.535c3.798 5.1 4.662 20.802 1.2 44.496 0 0 12.875-.126 15.654 3.24 2.3-.353 4.627-.508 6.954-.463-3.474-3.528-12.84-4.974-17.79-5.105 1.8-14.844 3.438-23.352 1.8-34.578-.444-3.162-4.374-5.724-7.818-7.59Z" opacity=".8"/>
  <path fill="#FF4572" d="M88.338 152.946a28.502 28.502 0 0 1 2.55-2.838c2.4-2.562 4.992-5.82 5.94-9.204 2.4-8.562 3.631-17.544 4.339-26.4a45.51 45.51 0 0 0-3.87-21.756l-8.01.714c-1.201.102-2.167 1.2-2.785 2.226 2.358 9.636 1.89 20.022-.774 29.58-1.368 4.921-3.384 9.642-4.8 14.555-1.416 4.912-2.226 10.14-1.11 15.126.486 2.19 2.286 4.392 3.972 5.874 1.2 1.061 3.306.684 4.914.695a4.683 4.683 0 0 1-1.956-5.231 20.185 20.185 0 0 1 1.59-3.342v.001Z"/>
  <path fill="#fff" d="M88.338 152.946a28.502 28.502 0 0 1 2.55-2.838c2.4-2.562 4.992-5.82 5.94-9.204 2.4-8.562 3.631-17.544 4.339-26.4a45.51 45.51 0 0 0-3.87-21.756l-8.01.714c-1.201.102-2.167 1.2-2.785 2.226 2.358 9.636 1.89 20.022-.774 29.58-1.368 4.921-3.384 9.642-4.8 14.555-1.416 4.912-2.226 10.14-1.11 15.126.486 2.19 2.286 4.392 3.972 5.874 1.2 1.061 3.306.684 4.914.695a4.683 4.683 0 0 1-1.956-5.231 20.185 20.185 0 0 1 1.59-3.342v.001Z" opacity=".8"/>
  <path fill="#FF4572" d="M127.801 120.996a2.263 2.263 0 0 0-2.4-1.542 3.846 3.846 0 0 0-2.58 1.59 6.2 6.2 0 0 0-.834 6.06 4.566 4.566 0 0 0 2.777 2.706 3.004 3.004 0 0 0 3.464-1.302c-1.404-1.734-1.53-4.704-.414-6.642.032-.29.027-.582-.013-.87Z"/>
  <path fill="#fff" d="M127.801 120.996a2.263 2.263 0 0 0-2.4-1.542 3.846 3.846 0 0 0-2.58 1.59 6.2 6.2 0 0 0-.834 6.06 4.566 4.566 0 0 0 2.777 2.706 3.004 3.004 0 0 0 3.464-1.302c-1.404-1.734-1.53-4.704-.414-6.642.032-.29.027-.582-.013-.87Z" opacity=".6"/>
  <path fill="#263238" d="m131.617 93.7-3.026 1.53-5.062-10.013a1.111 1.111 0 0 1-.065-.856 1.123 1.123 0 0 1 .56-.651l1.044-.528a1.124 1.124 0 0 1 1.508.495l5.062 10.013-.021.01Z"/>
  <path fill="#fff" d="m131.617 93.7-3.026 1.53-5.062-10.013a1.111 1.111 0 0 1-.065-.856 1.123 1.123 0 0 1 .56-.651l1.044-.528a1.124 1.124 0 0 1 1.508.495l5.062 10.013-.021.01Z" opacity=".3"/>
  <path fill="#FF4572" d="M127.177 129.252h3.168V96.324h-3.168v32.928Zm8.513-29.442h3.168v-3.486h-3.168v3.486Z"/>
  <path fill="#000" d="M127.177 129.252h3.168V96.324h-3.168v32.928Zm8.513-29.442h3.168v-3.486h-3.168v3.486Z" opacity=".2"/>
  <path fill="#FF4572" d="M134.573 96.324h2.532v-5.1h-2.532v5.1Z"/>
  <path fill="#000" d="M134.573 96.324h2.532v-5.1h-2.532v5.1Z" opacity=".1"/>
  <path fill="#FF4572" d="M123.221 96.324h11.358V91.2l-10.08 2.16a1.626 1.626 0 0 0-1.278 1.584v1.38Z"/>
  <path fill="#fff" d="M123.221 96.324h11.358V91.2l-10.08 2.16a1.626 1.626 0 0 0-1.278 1.584v1.38Z" opacity=".2"/>
  <path fill="#263238" d="m135.186 101.838 3.6-1.692a.174.174 0 0 0 .04-.298.174.174 0 0 0-.112-.038h-8.28a.174.174 0 0 0-.175.138.174.174 0 0 0 .103.198l3.6 1.692a1.435 1.435 0 0 0 1.224 0Z"/>
  <path fill="#263238" d="M132.961 101.938v3.29c0 .414.335.749.749.749h1.742a.749.749 0 0 0 .749-.749v-3.29a.749.749 0 0 0-.749-.749h-1.742a.749.749 0 0 0-.749.749Z"/>
  <path fill="#fff" d="M132.961 101.938v3.29c0 .414.335.749.749.749h1.742a.749.749 0 0 0 .749-.749v-3.29a.749.749 0 0 0-.749-.749h-1.742a.749.749 0 0 0-.749.749Z" opacity=".6"/>
  <path fill="#263238" d="m135.855 101.994 1.259 3.04a.75.75 0 0 0 .979.405l1.61-.667a.749.749 0 0 0 .405-.978l-1.259-3.04a.75.75 0 0 0-.979-.405l-1.61.667a.749.749 0 0 0-.405.978Zm-5.55-1.238-1.259 3.04a.75.75 0 0 0 .405.979l1.61.666a.749.749 0 0 0 .979-.405l1.259-3.04a.749.749 0 0 0-.405-.978l-1.61-.667a.75.75 0 0 0-.979.405Z"/>
  <path fill="#fff" d="m135.855 101.994 1.259 3.04a.75.75 0 0 0 .979.405l1.61-.667a.749.749 0 0 0 .405-.978l-1.259-3.04a.75.75 0 0 0-.979-.405l-1.61.667a.749.749 0 0 0-.405.978Zm-5.55-1.238-1.259 3.04a.75.75 0 0 0 .405.979l1.61.666a.749.749 0 0 0 .979-.405l1.259-3.04a.749.749 0 0 0-.405-.978l-1.61-.667a.75.75 0 0 0-.979.405Z" opacity=".3"/>
  <path fill="#FF4572" d="M127.199 129.253h-9.072a1.468 1.468 0 0 1-1.428-1.801l4.548-29.957a1.524 1.524 0 0 1 1.482-1.2h12.96v3.486h-8.49v29.472Z"/>
  <path fill="#fff" d="M127.199 129.253h-9.072a1.468 1.468 0 0 1-1.428-1.801l4.548-29.957a1.524 1.524 0 0 1 1.482-1.2h12.96v3.486h-8.49v29.472Z" opacity=".3"/>
  <path fill="#263238" d="M132.851 116.802h12.864V114.3h-12.864v2.502Z"/>
  <path fill="#263238" d="M119.993 116.802h12.864V114.3h-12.864v2.502Z"/>
  <path fill="#fff" d="M132.851 116.802h12.864V114.3h-12.864v2.502Z" opacity=".7"/>
  <path fill="#fff" d="M119.993 116.802h12.864V114.3h-12.864v2.502Z" opacity=".3"/>
  <path fill="#263238" d="M120.233 122.88c0 2.141 1.38 3.869 3.084 3.869 1.704 0 3.084-1.728 3.084-3.869 0-2.142-1.38-3.87-3.084-3.87-1.704 0-3.084 1.734-3.084 3.87Z"/>
  <path fill="#FF4572" d="M119.401 122.88c0 2.141 1.386 3.869 3.09 3.869s3.084-1.728 3.084-3.869c0-2.142-1.38-3.87-3.084-3.87-1.704 0-3.09 1.734-3.09 3.87Z"/>
  <path fill="#fff" d="M119.401 122.88c0 2.141 1.386 3.869 3.09 3.869s3.084-1.728 3.084-3.869c0-2.142-1.38-3.87-3.084-3.87-1.704 0-3.09 1.734-3.09 3.87Z" opacity=".7"/>
  <path fill="#FF4572" d="M148.333 126.324h-21.149v2.928h21.149v-2.928Z"/>
  <path fill="#fff" d="M148.333 126.324h-21.149v2.928h21.149v-2.928Z" opacity=".3"/>
  <path fill="#FF4572" d="M148.332 126.324h-10.578v2.928h10.578v-2.928Z"/>
  <path fill="#FF8B7B" d="M94.032 113.91c1.8 4.8 1.122 7.902 4.272 8.664 3.15.762 16.974.426 16.974.426 2.466-.192 1.8 2.922 1.422 4.35-4.656.816-8.4.972-13.008 1.889-3.384.673-8.892 1.585-12.12.385-2.922-1.092-5.238-9.39-6.81-15.396 1.668-1.902 9.27-.318 9.27-.318Z"/>
  <path fill="#FF8B7B" d="m117.366 121.649 2.148-1.926 2.718 6.276s-5.4 1.962-6.306.87l-1.236-1.739c-1.212-1.531 1.47-2.485 2.676-3.481Zm6.709-2.015.912 3.81-2.76 2.532-2.712-6.252 4.56-.09Z"/>
  <path fill="#263238" d="m142.83 202.062 8.844.035 1.11-4.343-10.098-.229.144 4.537Z"/>
  <path fill="#fff" d="m142.83 202.062 8.844.035 1.11-4.343-10.098-.229.144 4.537Z" opacity=".7"/>
  <path fill="#000" d="M85.967 124.368s-.114 7.59 1.86 9.564c3.372 3.366 11.934-1.578 11.934-1.578s-7.872.846-13.794-7.986Z" opacity=".2"/>
  <path fill="#FF4572" d="M89.328 93.81c-13.236 4.896-4.026 31.033-.258 37.686a17.916 17.916 0 0 0 14.567-.486c-.948-3-1.236-6.787-.198-9.768-1.968-.354-4.608-.672-6.6-1.026 0 0-1.26-8.772-1.512-14.928-.173-4.878-1.517-10.842-5.999-11.478Z"/>
  <path fill="#fff" d="M89.328 93.81c-13.236 4.896-4.026 31.033-.258 37.686a17.916 17.916 0 0 0 14.567-.486c-.948-3-1.236-6.787-.198-9.768-1.968-.354-4.608-.672-6.6-1.026 0 0-1.26-8.772-1.512-14.928-.173-4.878-1.517-10.842-5.999-11.478Z" opacity=".8"/>
  <path fill="#FF4572" d="M102.144 120.936a13.412 13.412 0 0 0-1.356 5.502 6.594 6.594 0 0 0 2.22 5.058 3.716 3.716 0 0 1 2.4-.678c.522.035.816 0 1.338.03a46.45 46.45 0 0 1 0-8.808 6.518 6.518 0 0 0-2.682.084c.144-.822-1.098-1.344-1.92-1.188Z"/>
  <path fill="#fff" d="M102.144 120.936a13.412 13.412 0 0 0-1.356 5.502 6.594 6.594 0 0 0 2.22 5.058 3.716 3.716 0 0 1 2.4-.678c.522.035.816 0 1.338.03a46.45 46.45 0 0 1 0-8.808 6.518 6.518 0 0 0-2.682.084c.144-.822-1.098-1.344-1.92-1.188Z" opacity=".6"/>
  <path fill="#FF8B7B" d="M102.6 91.8c1.836-3.06 2.742-7.83 3.096-10.872l5.484 8.832a8.796 8.796 0 0 0-1.399 3.84c-.035.444.042.665.288.834.424.27.826.575 1.2.912l.21.204a1.982 1.982 0 0 1 .342 2.256 1.608 1.608 0 0 1-1.104.805l-1.692.324a1.61 1.61 0 0 1-.774-.042l-1.914-.6a18.868 18.868 0 0 1-6.204-3.258s-1.8-2.13.77-2.208a2.083 2.083 0 0 0 1.697-1.026Z"/>
  <path fill="#000" d="m107.772 85.074 3.174 5.052a9.803 9.803 0 0 0-.948 2.214c-1.596-.792-3.289-2.88-3.359-4.92-.067-1.26.659-2.352 1.133-2.346Z" opacity=".2"/>
  <path fill="#FF8B7B" d="M107.287 74.826c-1.614 5.4-2.826 8.46-1.152 12.138 2.508 5.538 9.906 5.502 13.08.714 2.88-4.344 5.016-12.408.6-16.398a7.673 7.673 0 0 0-12.552 3.546h.024Z"/>
  <path fill="#263238" d="M108.854 67.667a4.98 4.98 0 0 0-2.142 2.563c-.116.25-.135.534-.054.797.102.252 3.654 1.59 5.064 2.136a1.994 1.994 0 0 1 1.259-1.404 2.236 2.236 0 0 1 1.938.228c1.974 1.32 2.748 3.283 5.172 3.169a2.362 2.362 0 0 1-.87-.654 2.402 2.402 0 0 1-.642-1.404c.192.558 1.314.9 1.878 1.17a3.598 3.598 0 0 1 1.956 2.705c.786-.857 1.578-1.44 2.07-2.472a4.287 4.287 0 0 0-.175-3.528 4.793 4.793 0 0 0-2.124-1.95c-8.07-4.224-12.33-1.95-13.33-1.356Zm6.598 12.066c-.157.432-.061.864.222.966.282.102.636-.162.792-.6.156-.438.06-.858-.222-.96-.282-.102-.636.168-.792.594Zm-.582 6.722c-.156.432-.06.864.222.966.282.102.636-.162.792-.6.156-.438.06-.858-.222-.96-.282-.102-.636.168-.792.594Zm6.33-4.093a.126.126 0 0 1-.09-.03 2.722 2.722 0 0 0-1.248-.6.138.138 0 0 1-.126-.108.15.15 0 0 1 .002-.087.146.146 0 0 1 .052-.07 3.447 3.447 0 0 1 1.679-.695.147.147 0 0 1 .113.029.137.137 0 0 1 .038.046c.01.018.015.037.017.057a.149.149 0 0 1-.029.11.148.148 0 0 1-.097.058c-.45.053-.882.205-1.266.444a3.34 3.34 0 0 1 1.044.6c.031.024.052.06.058.099a.148.148 0 0 1-.028.111.163.163 0 0 1-.119.036Zm-5.91-5.562a.375.375 0 0 1-.09-.109.29.29 0 0 1 .186-.33 2.711 2.711 0 0 1 2.4.438.276.276 0 0 1 .081.19.28.28 0 0 1-.077.192.279.279 0 0 1-.19.08.27.27 0 0 1-.192-.077 2.128 2.128 0 0 0-1.908-.324.288.288 0 0 1-.21-.06Zm7.386 3.06a.264.264 0 0 1-.228-.114 2.134 2.134 0 0 0-1.662-.972.268.268 0 0 1-.217-.062.275.275 0 0 1-.07-.093.274.274 0 0 1 .07-.317.27.27 0 0 1 .217-.062 2.665 2.665 0 0 1 2.136 1.2.259.259 0 0 1-.06.36.242.242 0 0 1-.186.06Z"/>
  <path fill="#263238" d="M107.555 79.8c-.294-2.82 2.496-2.742 2.496-2.742.63-.426 1.254-2.4 1.68-3.036.851-1.278.329-1.8-.204-2.094a6.1 6.1 0 0 0-1.74-.564c-.77-.168-2.4-.6-3.168-.786-3.768 1.2-4.446 10.763-1.158 13.242-.179-2.952 2.292-2.148 2.094-4.02Z"/>
  <path fill="#FF8B7B" d="M102.913 78.798a5.363 5.363 0 0 0 2.309 3.359c1.584 1.002 2.916-.27 2.934-2.052 0-1.59-.792-4.044-2.598-4.339-1.806-.294-2.992 1.328-2.645 3.032Z"/>
  <path fill="#FF5652" d="M118.519 80.778c.036 1.498.276 2.983.714 4.416-1.038.42-2.196-.366-2.196-.366l1.482-4.05Z"/>
  <path fill="#263238" d="M109.765 93.93s1.801 4.477-2.333 3.798c-3.163-.51-6.565-5.07-6.565-5.07l-1.416.157s-.953 8.016 4.009 10.932c0 0 2.615-3.936 4.644-3.888 2.676.066 3.726 3.414 3.726 3.414s2.034-3.468-.6-8.4l-1.465-.943Z"/>
  <path fill="#fff" d="M109.765 93.93s1.801 4.477-2.333 3.798c-3.163-.51-6.565-5.07-6.565-5.07l-1.416.157s-.953 8.016 4.009 10.932c0 0 2.615-3.936 4.644-3.888 2.676.066 3.726 3.414 3.726 3.414s2.034-3.468-.6-8.4l-1.465-.943Z" opacity=".2"/>
  <path fill="#FF5652" d="M96.743 104.538a2.95 2.95 0 0 1 1.669-.504 2.786 2.786 0 0 1 1.692.396v-.455l-.444-.69a2.147 2.147 0 0 0-1.284-.294 2.24 2.24 0 0 0-1.26.378l-.378.642.005.527Z"/>
  <path fill="#000" d="M96.743 104.538a2.95 2.95 0 0 1 1.669-.504 2.786 2.786 0 0 1 1.692.396v-.455l-.444-.69a2.147 2.147 0 0 0-1.284-.294 2.24 2.24 0 0 0-1.26.378l-.378.642.005.527Z" opacity=".3"/>
  <path fill="#000" d="M97.272 103.271c-.054.028-.107.06-.156.096l-.372.636c.024.156.064.308.12.455.131-.081.27-.149.414-.204a1.29 1.29 0 0 1-.006-.983Zm2.209.884c.148.042.293.096.432.162.049-.166.077-.338.084-.51l-.336-.522a1.3 1.3 0 0 0-.282-.145c.11.163.162.357.15.552.007.156-.01.312-.047.463Z" opacity=".1"/>
  <path fill="#FF5652" d="M99.66 103.284s.745.852-.636 2.652c-1.504 1.968-2.663 3.24-3.6 3.359l1.02 1.2s1.386-.294 3.396-3.546c1.398-2.297-.18-3.665-.18-3.665Z"/>
  <path fill="#000" d="m98.502 108.804.06-.078a12.306 12.306 0 0 1-.918-1.084l-.09.102.078.12c.206.333.47.625.78.864a.601.601 0 0 1 .09.078v-.002Z" opacity=".3"/>
  <path fill="#FF5652" d="M97.115 103.368s-.69.894.804 2.604c1.632 1.866 2.869 3.06 3.84 3.114l-.96 1.278s-1.404-.204-3.6-3.318c-1.573-2.214-.084-3.678-.084-3.678Z"/>
</svg>
